<svg width="3327" height="3014" xmlns="http://www.w3.org/2000/svg" xmlns:xlink="http://www.w3.org/1999/xlink" xml:space="preserve" overflow="hidden"><defs><clipPath id="clip0"><rect x="2392" y="774" width="3327" height="3014"/></clipPath><clipPath id="clip1"><rect x="2392" y="775" width="1650" height="990"/></clipPath><clipPath id="clip2"><rect x="2483" y="945" width="1512" height="612"/></clipPath><clipPath id="clip3"><rect x="2483" y="945" width="1512" height="612"/></clipPath><clipPath id="clip4"><rect x="2392" y="775" width="1650" height="990"/></clipPath><clipPath id="clip5"><rect x="2392" y="775" width="1650" height="990"/></clipPath><clipPath id="clip6"><rect x="2392" y="775" width="1650" height="990"/></clipPath><clipPath id="clip7"><rect x="2392" y="775" width="1650" height="990"/></clipPath><clipPath id="clip8"><rect x="2392" y="775" width="1650" height="990"/></clipPath><clipPath id="clip9"><rect x="2392" y="775" width="1650" height="990"/></clipPath><clipPath id="clip10"><rect x="2392" y="775" width="1650" height="990"/></clipPath><clipPath id="clip11"><rect x="2392" y="775" width="1650" height="990"/></clipPath><clipPath id="clip12"><rect x="2392" y="775" width="1650" height="990"/></clipPath><clipPath id="clip13"><rect x="2392" y="775" width="1650" height="990"/></clipPath><clipPath id="clip14"><rect x="2392" y="775" width="1650" height="990"/></clipPath><clipPath id="clip15"><rect x="2392" y="775" width="1650" height="990"/></clipPath><clipPath id="clip16"><rect x="2392" y="775" width="1650" height="990"/></clipPath><clipPath id="clip17"><rect x="2392" y="775" width="1650" height="990"/></clipPath><clipPath id="clip18"><rect x="2392" y="775" width="1650" height="990"/></clipPath><clipPath id="clip19"><rect x="2392" y="775" width="1650" height="990"/></clipPath><clipPath id="clip20"><rect x="2392" y="775" width="1650" height="990"/></clipPath><clipPath id="clip21"><rect x="2392" y="775" width="1650" height="990"/></clipPath><clipPath id="clip22"><rect x="2392" y="775" width="1650" height="990"/></clipPath><clipPath id="clip23"><rect x="2392" y="775" width="1650" height="990"/></clipPath><clipPath id="clip24"><rect x="2392" y="775" width="1650" height="990"/></clipPath><clipPath id="clip25"><rect x="2392" y="775" width="1650" height="990"/></clipPath><clipPath id="clip26"><rect x="4066" y="782" width="1650" height="990"/></clipPath><clipPath id="clip27"><rect x="4194" y="952" width="1475" height="612"/></clipPath><clipPath id="clip28"><rect x="4194" y="952" width="1475" height="612"/></clipPath><clipPath id="clip29"><rect x="4066" y="782" width="1650" height="990"/></clipPath><clipPath id="clip30"><rect x="4066" y="782" width="1650" height="990"/></clipPath><clipPath id="clip31"><rect x="4066" y="782" width="1650" height="990"/></clipPath><clipPath id="clip32"><rect x="4066" y="782" width="1650" height="990"/></clipPath><clipPath id="clip33"><rect x="4066" y="782" width="1650" height="990"/></clipPath><clipPath id="clip34"><rect x="4066" y="782" width="1650" height="990"/></clipPath><clipPath id="clip35"><rect x="4066" y="782" width="1650" height="990"/></clipPath><clipPath id="clip36"><rect x="4066" y="782" width="1650" height="990"/></clipPath><clipPath id="clip37"><rect x="4066" y="782" width="1650" height="990"/></clipPath><clipPath id="clip38"><rect x="4066" y="782" width="1650" height="990"/></clipPath><clipPath id="clip39"><rect x="4066" y="782" width="1650" height="990"/></clipPath><clipPath id="clip40"><rect x="4066" y="782" width="1650" height="990"/></clipPath><clipPath id="clip41"><rect x="4066" y="782" width="1650" height="990"/></clipPath><clipPath id="clip42"><rect x="4066" y="782" width="1650" height="990"/></clipPath><clipPath id="clip43"><rect x="4066" y="782" width="1650" height="990"/></clipPath><clipPath id="clip44"><rect x="4066" y="782" width="1650" height="990"/></clipPath><clipPath id="clip45"><rect x="4066" y="782" width="1650" height="990"/></clipPath><clipPath id="clip46"><rect x="4066" y="782" width="1650" height="990"/></clipPath><clipPath id="clip47"><rect x="4066" y="782" width="1650" height="990"/></clipPath><clipPath id="clip48"><rect x="4066" y="782" width="1650" height="990"/></clipPath><clipPath id="clip49"><rect x="4066" y="782" width="1650" height="990"/></clipPath><clipPath id="clip50"><rect x="2394" y="1785" width="1650" height="990"/></clipPath><clipPath id="clip51"><rect x="2522" y="1955" width="1475" height="613"/></clipPath><clipPath id="clip52"><rect x="2522" y="1955" width="1475" height="613"/></clipPath><clipPath id="clip53"><rect x="2394" y="1785" width="1650" height="990"/></clipPath><clipPath id="clip54"><rect x="2394" y="1785" width="1650" height="990"/></clipPath><clipPath id="clip55"><rect x="2394" y="1785" width="1650" height="990"/></clipPath><clipPath id="clip56"><rect x="2394" y="1785" width="1650" height="990"/></clipPath><clipPath id="clip57"><rect x="2394" y="1785" width="1650" height="990"/></clipPath><clipPath id="clip58"><rect x="2394" y="1785" width="1650" height="990"/></clipPath><clipPath id="clip59"><rect x="2394" y="1785" width="1650" height="990"/></clipPath><clipPath id="clip60"><rect x="2394" y="1785" width="1650" height="990"/></clipPath><clipPath id="clip61"><rect x="2394" y="1785" width="1650" height="990"/></clipPath><clipPath id="clip62"><rect x="2394" y="1785" width="1650" height="990"/></clipPath><clipPath id="clip63"><rect x="2394" y="1785" width="1650" height="990"/></clipPath><clipPath id="clip64"><rect x="2394" y="1785" width="1650" height="990"/></clipPath><clipPath id="clip65"><rect x="2394" y="1785" width="1650" height="990"/></clipPath><clipPath id="clip66"><rect x="2394" y="1785" width="1650" height="990"/></clipPath><clipPath id="clip67"><rect x="2394" y="1785" width="1650" height="990"/></clipPath><clipPath id="clip68"><rect x="2394" y="1785" width="1650" height="990"/></clipPath><clipPath id="clip69"><rect x="2394" y="1785" width="1650" height="990"/></clipPath><clipPath id="clip70"><rect x="2394" y="1785" width="1650" height="990"/></clipPath><clipPath id="clip71"><rect x="2394" y="1785" width="1650" height="990"/></clipPath><clipPath id="clip72"><rect x="2394" y="1785" width="1650" height="990"/></clipPath><clipPath id="clip73"><rect x="2394" y="1785" width="1650" height="990"/></clipPath><clipPath id="clip74"><rect x="4061" y="1792" width="1650" height="990"/></clipPath><clipPath id="clip75"><rect x="4189" y="1962" width="1475" height="612"/></clipPath><clipPath id="clip76"><rect x="4189" y="1962" width="1475" height="612"/></clipPath><clipPath id="clip77"><rect x="4061" y="1792" width="1650" height="990"/></clipPath><clipPath id="clip78"><rect x="4061" y="1792" width="1650" height="990"/></clipPath><clipPath id="clip79"><rect x="4061" y="1792" width="1650" height="990"/></clipPath><clipPath id="clip80"><rect x="4061" y="1792" width="1650" height="990"/></clipPath><clipPath id="clip81"><rect x="4061" y="1792" width="1650" height="990"/></clipPath><clipPath id="clip82"><rect x="4061" y="1792" width="1650" height="990"/></clipPath><clipPath id="clip83"><rect x="4061" y="1792" width="1650" height="990"/></clipPath><clipPath id="clip84"><rect x="4061" y="1792" width="1650" height="990"/></clipPath><clipPath id="clip85"><rect x="4061" y="1792" width="1650" height="990"/></clipPath><clipPath id="clip86"><rect x="4061" y="1792" width="1650" height="990"/></clipPath><clipPath id="clip87"><rect x="4061" y="1792" width="1650" height="990"/></clipPath><clipPath id="clip88"><rect x="4061" y="1792" width="1650" height="990"/></clipPath><clipPath id="clip89"><rect x="4061" y="1792" width="1650" height="990"/></clipPath><clipPath id="clip90"><rect x="4061" y="1792" width="1650" height="990"/></clipPath><clipPath id="clip91"><rect x="4061" y="1792" width="1650" height="990"/></clipPath><clipPath id="clip92"><rect x="4061" y="1792" width="1650" height="990"/></clipPath><clipPath id="clip93"><rect x="4061" y="1792" width="1650" height="990"/></clipPath><clipPath id="clip94"><rect x="4061" y="1792" width="1650" height="990"/></clipPath><clipPath id="clip95"><rect x="4061" y="1792" width="1650" height="990"/></clipPath><clipPath id="clip96"><rect x="4061" y="1792" width="1650" height="990"/></clipPath><clipPath id="clip97"><rect x="4061" y="1792" width="1650" height="990"/></clipPath><clipPath id="clip98"><rect x="3188" y="2796" width="1650" height="990"/></clipPath><clipPath id="clip99"><rect x="3310" y="2966" width="1481" height="612"/></clipPath><clipPath id="clip100"><rect x="3310" y="2966" width="1481" height="612"/></clipPath><clipPath id="clip101"><rect x="3188" y="2796" width="1650" height="990"/></clipPath><clipPath id="clip102"><rect x="3188" y="2796" width="1650" height="990"/></clipPath><clipPath id="clip103"><rect x="3188" y="2796" width="1650" height="990"/></clipPath><clipPath id="clip104"><rect x="3188" y="2796" width="1650" height="990"/></clipPath><clipPath id="clip105"><rect x="3188" y="2796" width="1650" height="990"/></clipPath><clipPath id="clip106"><rect x="3188" y="2796" width="1650" height="990"/></clipPath><clipPath id="clip107"><rect x="3188" y="2796" width="1650" height="990"/></clipPath><clipPath id="clip108"><rect x="3188" y="2796" width="1650" height="990"/></clipPath><clipPath id="clip109"><rect x="3188" y="2796" width="1650" height="990"/></clipPath><clipPath id="clip110"><rect x="3188" y="2796" width="1650" height="990"/></clipPath><clipPath id="clip111"><rect x="3188" y="2796" width="1650" height="990"/></clipPath><clipPath id="clip112"><rect x="3188" y="2796" width="1650" height="990"/></clipPath><clipPath id="clip113"><rect x="3188" y="2796" width="1650" height="990"/></clipPath><clipPath id="clip114"><rect x="3188" y="2796" width="1650" height="990"/></clipPath><clipPath id="clip115"><rect x="3188" y="2796" width="1650" height="990"/></clipPath><clipPath id="clip116"><rect x="3188" y="2796" width="1650" height="990"/></clipPath><clipPath id="clip117"><rect x="3188" y="2796" width="1650" height="990"/></clipPath><clipPath id="clip118"><rect x="3188" y="2796" width="1650" height="990"/></clipPath><clipPath id="clip119"><rect x="3188" y="2796" width="1650" height="990"/></clipPath><clipPath id="clip120"><rect x="3188" y="2796" width="1650" height="990"/></clipPath><clipPath id="clip121"><rect x="3188" y="2796" width="1650" height="990"/></clipPath><clipPath id="clip122"><rect x="3188" y="2796" width="1650" height="990"/></clipPath><clipPath id="clip123"><rect x="3188" y="2796" width="1650" height="990"/></clipPath><clipPath id="clip124"><rect x="3188" y="2796" width="1650" height="990"/></clipPath></defs><g clip-path="url(#clip0)" transform="translate(-2392 -774)"><rect x="2393" y="775" width="1649" height="990" fill="#FFFFFF"/><g clip-path="url(#clip1)"><path d="M2483.5 1452.55 3992.5 1452.55M2483.5 1350.54 3992.5 1350.54M2483.5 1249.54 3992.5 1249.54M2483.5 1148.54 3992.5 1148.54M2483.5 1046.53 3992.5 1046.53M2483.5 945.5 3992.5 945.5" stroke="#D9D9D9" stroke-width="3.4375" stroke-linejoin="round" stroke-miterlimit="10" fill="none"/></g><g clip-path="url(#clip2)"><path d="M2525.08 1532.05 2562.08 1532.05 2562.08 1554 2525.08 1554ZM2692.09 1513.05 2730.09 1513.05 2730.09 1554 2692.09 1554ZM2860.09 1517.05 2897.1 1517.05 2897.1 1554 2860.09 1554ZM3027.1 1523.05 3065.1 1523.05 3065.1 1554 3027.1 1554ZM3195.1 1507.05 3233.11 1507.05 3233.11 1554 3195.1 1554ZM3363.11 1504.05 3400.11 1504.05 3400.11 1554 3363.11 1554ZM3530.12 1490.05 3568.12 1490.05 3568.12 1554 3530.12 1554ZM3698.12 1511.05 3735.12 1511.05 3735.12 1554 3698.12 1554ZM3865.13 1522.05 3903.13 1522.05 3903.13 1554 3865.13 1554Z" fill="#4472C4"/></g><g clip-path="url(#clip3)"><path d="M2572.08 1340.04 2610.09 1340.04 2610.09 1554 2572.08 1554ZM2740.09 1414.05 2778.09 1414.05 2778.09 1554 2740.09 1554ZM2908.1 1033.03 2945.1 1033.03 2945.1 1554 2908.1 1554ZM3075.1 1349.04 3113.1 1349.04 3113.1 1554 3075.1 1554ZM3243.11 1333.04 3280.11 1333.04 3280.11 1554 3243.11 1554ZM3410.11 1261.04 3448.11 1261.04 3448.11 1554 3410.11 1554ZM3578.12 1539.05 3616.12 1539.05 3616.12 1554 3578.12 1554ZM3746.12 1530.05 3783.12 1530.05 3783.12 1554 3746.12 1554ZM3913.13 1537.05 3951.13 1537.05 3951.13 1554 3913.13 1554Z" fill="#ED7D31"/></g><g clip-path="url(#clip4)"><path d="M2483.5 1553.5 3992.5 1553.5" stroke="#D9D9D9" stroke-width="3.4375" stroke-linejoin="round" stroke-miterlimit="10" fill="none" fill-rule="evenodd"/></g><g clip-path="url(#clip5)"><text fill="#595959" font-family="Calibri,Calibri_MSFontService,sans-serif" font-weight="400" font-size="41" transform="matrix(1 0 0 1 2424.35 1566)">0</text></g><g clip-path="url(#clip6)"><text fill="#595959" font-family="Calibri,Calibri_MSFontService,sans-serif" font-weight="400" font-size="41" transform="matrix(1 0 0 1 2424.35 1464)">1</text></g><g clip-path="url(#clip7)"><text fill="#595959" font-family="Calibri,Calibri_MSFontService,sans-serif" font-weight="400" font-size="41" transform="matrix(1 0 0 1 2424.35 1363)">2</text></g><g clip-path="url(#clip8)"><text fill="#595959" font-family="Calibri,Calibri_MSFontService,sans-serif" font-weight="400" font-size="41" transform="matrix(1 0 0 1 2424.35 1261)">3</text></g><g clip-path="url(#clip9)"><text fill="#595959" font-family="Calibri,Calibri_MSFontService,sans-serif" font-weight="400" font-size="41" transform="matrix(1 0 0 1 2424.35 1160)">4</text></g><g clip-path="url(#clip10)"><text fill="#595959" font-family="Calibri,Calibri_MSFontService,sans-serif" font-weight="400" font-size="41" transform="matrix(1 0 0 1 2424.35 1058)">5</text></g><g clip-path="url(#clip11)"><text fill="#595959" font-family="Calibri,Calibri_MSFontService,sans-serif" font-weight="400" font-size="41" transform="matrix(1 0 0 1 2424.35 957)">6</text></g><g clip-path="url(#clip12)"><text fill="#595959" font-family="Calibri,Calibri_MSFontService,sans-serif" font-weight="400" font-size="41" transform="matrix(1 0 0 1 2556.88 1619)">1</text></g><g clip-path="url(#clip13)"><text fill="#595959" font-family="Calibri,Calibri_MSFontService,sans-serif" font-weight="400" font-size="41" transform="matrix(1 0 0 1 2724.5 1619)">2</text></g><g clip-path="url(#clip14)"><text fill="#595959" font-family="Calibri,Calibri_MSFontService,sans-serif" font-weight="400" font-size="41" transform="matrix(1 0 0 1 2892.12 1619)">3</text></g><g clip-path="url(#clip15)"><text fill="#595959" font-family="Calibri,Calibri_MSFontService,sans-serif" font-weight="400" font-size="41" transform="matrix(1 0 0 1 3059.73 1619)">4</text></g><g clip-path="url(#clip16)"><text fill="#595959" font-family="Calibri,Calibri_MSFontService,sans-serif" font-weight="400" font-size="41" transform="matrix(1 0 0 1 3227.35 1619)">5</text></g><g clip-path="url(#clip17)"><text fill="#595959" font-family="Calibri,Calibri_MSFontService,sans-serif" font-weight="400" font-size="41" transform="matrix(1 0 0 1 3394.97 1619)">6</text></g><g clip-path="url(#clip18)"><text fill="#595959" font-family="Calibri,Calibri_MSFontService,sans-serif" font-weight="400" font-size="41" transform="matrix(1 0 0 1 3562.59 1619)">7</text></g><g clip-path="url(#clip19)"><text fill="#595959" font-family="Calibri,Calibri_MSFontService,sans-serif" font-weight="400" font-size="41" transform="matrix(1 0 0 1 3730.21 1619)">8</text></g><g clip-path="url(#clip20)"><text fill="#595959" font-family="Calibri,Calibri_MSFontService,sans-serif" font-weight="400" font-size="41" transform="matrix(1 0 0 1 3897.82 1619)">9</text></g><g clip-path="url(#clip21)"><text fill="#595959" font-family="Calibri,Calibri_MSFontService,sans-serif" font-weight="400" font-size="64" transform="matrix(1 0 0 1 2984.14 871)">Water vs Bar Area</text></g><g clip-path="url(#clip22)"><rect x="2898" y="1688" width="22" height="22" fill="#4472C4"/></g><g clip-path="url(#clip23)"><text fill="#595959" font-family="Calibri,Calibri_MSFontService,sans-serif" font-weight="400" font-size="41" transform="matrix(1 0 0 1 2929.87 1711)">Mon-2016-Water</text></g><g clip-path="url(#clip24)"><rect x="3277" y="1688" width="23" height="22" fill="#ED7D31"/></g><g clip-path="url(#clip25)"><text fill="#595959" font-family="Calibri,Calibri_MSFontService,sans-serif" font-weight="400" font-size="41" transform="matrix(1 0 0 1 3309.75 1711)">Mon-2016-Bar</text></g><rect x="2393.5" y="775.5" width="1649" height="990" stroke="#D9D9D9" stroke-width="3.4375" stroke-linejoin="round" stroke-miterlimit="10" fill="none"/><rect x="4067" y="782" width="1650" height="990" fill="#FFFFFF"/><g clip-path="url(#clip26)"><path d="M4194.5 1439.55 5666.5 1439.55M4194.5 1317.54 5666.5 1317.54M4194.5 1195.54 5666.5 1195.54M4194.5 1073.54 5666.5 1073.54M4194.5 952.5 5666.5 952.5" stroke="#D9D9D9" stroke-width="3.4375" stroke-linejoin="round" stroke-miterlimit="10" fill="none"/></g><g clip-path="url(#clip27)"><path d="M4235.14 1354.04 4271.14 1354.04 4271.14 1561 4235.14 1561ZM4398.14 1275.04 4435.15 1275.04 4435.15 1561 4398.14 1561ZM4562.15 1259.04 4598.15 1259.04 4598.15 1561 4562.15 1561ZM4725.15 1172.04 4762.16 1172.04 4762.16 1561 4725.15 1561ZM4889.16 1175.04 4925.16 1175.04 4925.16 1561 4889.16 1561ZM5052.17 1163.04 5089.17 1163.04 5089.17 1561 5052.17 1561ZM5216.17 1148.04 5252.17 1148.04 5252.17 1561 5216.17 1561ZM5379.18 1208.04 5416.18 1208.04 5416.18 1561 5379.18 1561ZM5543.18 1320.04 5579.18 1320.04 5579.18 1561 5543.18 1561Z" fill="#4472C4"/></g><g clip-path="url(#clip28)"><path d="M4281.14 1502.05 4318.14 1502.05 4318.14 1561 4281.14 1561ZM4445.15 1383.05 4481.15 1383.05 4481.15 1561 4445.15 1561ZM4608.15 1022.03 4645.15 1022.03 4645.15 1561 4608.15 1561ZM4772.16 1438.05 4808.16 1438.05 4808.16 1561 4772.16 1561Z" fill="#ED7D31"/></g><g clip-path="url(#clip29)"><path d="M4194.5 1560.5 5666.5 1560.5" stroke="#D9D9D9" stroke-width="3.4375" stroke-linejoin="round" stroke-miterlimit="10" fill="none" fill-rule="evenodd"/></g><g clip-path="url(#clip30)"><text fill="#595959" font-family="Calibri,Calibri_MSFontService,sans-serif" font-weight="400" font-size="41" transform="matrix(1 0 0 1 4135.45 1572)">0</text></g><g clip-path="url(#clip31)"><text fill="#595959" font-family="Calibri,Calibri_MSFontService,sans-serif" font-weight="400" font-size="41" transform="matrix(1 0 0 1 4104.15 1451)">0.5</text></g><g clip-path="url(#clip32)"><text fill="#595959" font-family="Calibri,Calibri_MSFontService,sans-serif" font-weight="400" font-size="41" transform="matrix(1 0 0 1 4135.45 1329)">1</text></g><g clip-path="url(#clip33)"><text fill="#595959" font-family="Calibri,Calibri_MSFontService,sans-serif" font-weight="400" font-size="41" transform="matrix(1 0 0 1 4104.15 1207)">1.5</text></g><g clip-path="url(#clip34)"><text fill="#595959" font-family="Calibri,Calibri_MSFontService,sans-serif" font-weight="400" font-size="41" transform="matrix(1 0 0 1 4135.45 1085)">2</text></g><g clip-path="url(#clip35)"><text fill="#595959" font-family="Calibri,Calibri_MSFontService,sans-serif" font-weight="400" font-size="41" transform="matrix(1 0 0 1 4104.15 964)">2.5</text></g><g clip-path="url(#clip36)"><text fill="#595959" font-family="Calibri,Calibri_MSFontService,sans-serif" font-weight="400" font-size="41" transform="matrix(1 0 0 1 4265.92 1626)">1</text></g><g clip-path="url(#clip37)"><text fill="#595959" font-family="Calibri,Calibri_MSFontService,sans-serif" font-weight="400" font-size="41" transform="matrix(1 0 0 1 4429.42 1626)">2</text></g><g clip-path="url(#clip38)"><text fill="#595959" font-family="Calibri,Calibri_MSFontService,sans-serif" font-weight="400" font-size="41" transform="matrix(1 0 0 1 4592.92 1626)">3</text></g><g clip-path="url(#clip39)"><text fill="#595959" font-family="Calibri,Calibri_MSFontService,sans-serif" font-weight="400" font-size="41" transform="matrix(1 0 0 1 4756.43 1626)">4</text></g><g clip-path="url(#clip40)"><text fill="#595959" font-family="Calibri,Calibri_MSFontService,sans-serif" font-weight="400" font-size="41" transform="matrix(1 0 0 1 4919.93 1626)">5</text></g><g clip-path="url(#clip41)"><text fill="#595959" font-family="Calibri,Calibri_MSFontService,sans-serif" font-weight="400" font-size="41" transform="matrix(1 0 0 1 5083.43 1626)">6</text></g><g clip-path="url(#clip42)"><text fill="#595959" font-family="Calibri,Calibri_MSFontService,sans-serif" font-weight="400" font-size="41" transform="matrix(1 0 0 1 5246.94 1626)">7</text></g><g clip-path="url(#clip43)"><text fill="#595959" font-family="Calibri,Calibri_MSFontService,sans-serif" font-weight="400" font-size="41" transform="matrix(1 0 0 1 5410.44 1626)">8</text></g><g clip-path="url(#clip44)"><text fill="#595959" font-family="Calibri,Calibri_MSFontService,sans-serif" font-weight="400" font-size="41" transform="matrix(1 0 0 1 5573.94 1626)">9</text></g><g clip-path="url(#clip45)"><text fill="#595959" font-family="Calibri,Calibri_MSFontService,sans-serif" font-weight="400" font-size="64" transform="matrix(1 0 0 1 4658.2 877)">Water vs Bar Area</text></g><g clip-path="url(#clip46)"><rect x="4572" y="1695" width="22" height="22" fill="#4472C4"/></g><g clip-path="url(#clip47)"><text fill="#595959" font-family="Calibri,Calibri_MSFontService,sans-serif" font-weight="400" font-size="41" transform="matrix(1 0 0 1 4603.93 1717)">Mon-2017-Water</text></g><g clip-path="url(#clip48)"><rect x="4952" y="1695" width="22" height="22" fill="#ED7D31"/></g><g clip-path="url(#clip49)"><text fill="#595959" font-family="Calibri,Calibri_MSFontService,sans-serif" font-weight="400" font-size="41" transform="matrix(1 0 0 1 4983.81 1717)">Mon-2017-Bar</text></g><rect x="4067.5" y="782.5" width="1650" height="990" stroke="#D9D9D9" stroke-width="3.4375" stroke-linejoin="round" stroke-miterlimit="10" fill="none"/><rect x="2394" y="1786" width="1650" height="990" fill="#FFFFFF"/><g clip-path="url(#clip50)"><path d="M2522.5 2442.58 3993.5 2442.58M2522.5 2321.58 3993.5 2321.58M2522.5 2199.57 3993.5 2199.57M2522.5 2077.57 3993.5 2077.57M2522.5 1955.5 3993.5 1955.5" stroke="#D9D9D9" stroke-width="3.4375" stroke-linejoin="round" stroke-miterlimit="10" fill="none"/></g><g clip-path="url(#clip51)"><path d="M2562.08 2388.08 2599.09 2388.08 2599.09 2565 2562.08 2565ZM2726.09 2352.08 2762.09 2352.08 2762.09 2565 2726.09 2565ZM2889.09 2302.08 2926.1 2302.08 2926.1 2565 2889.09 2565ZM3053.1 2070.07 3089.1 2070.07 3089.1 2565 3053.1 2565ZM3216.11 2192.07 3253.11 2192.07 3253.11 2565 3216.11 2565ZM3380.11 2196.07 3416.11 2196.07 3416.11 2565 3380.11 2565ZM3543.12 2025.07 3580.12 2025.07 3580.12 2565 3543.12 2565ZM3707.12 2258.07 3743.12 2258.07 3743.12 2565 3707.12 2565ZM3870.13 2249.07 3907.13 2249.07 3907.13 2565 3870.13 2565Z" fill="#4472C4"/></g><g clip-path="url(#clip52)"><path d="M2609.09 2397.08 2646.09 2397.08 2646.09 2565 2609.09 2565ZM2772.09 2419.08 2809.09 2419.08 2809.09 2565 2772.09 2565ZM2936.1 2308.08 2973.1 2308.08 2973.1 2565 2936.1 2565ZM3099.1 2416.08 3136.1 2416.08 3136.1 2565 3099.1 2565ZM3263.11 2404.08 3300.11 2404.08 3300.11 2565 3263.11 2565ZM3426.11 2473.08 3463.11 2473.08 3463.11 2565 3426.11 2565ZM3590.12 2547.08 3627.12 2547.08 3627.12 2565 3590.12 2565ZM3917.13 2554.08 3954.13 2554.08 3954.13 2565 3917.13 2565Z" fill="#ED7D31"/></g><g clip-path="url(#clip53)"><path d="M2522.5 2564.5 3993.5 2564.5" stroke="#D9D9D9" stroke-width="3.4375" stroke-linejoin="round" stroke-miterlimit="10" fill="none" fill-rule="evenodd"/></g><g clip-path="url(#clip54)"><text fill="#595959" font-family="Calibri,Calibri_MSFontService,sans-serif" font-weight="400" font-size="41" transform="matrix(1 0 0 1 2463.11 2576)">0</text></g><g clip-path="url(#clip55)"><text fill="#595959" font-family="Calibri,Calibri_MSFontService,sans-serif" font-weight="400" font-size="41" transform="matrix(1 0 0 1 2431.8 2454)">0.5</text></g><g clip-path="url(#clip56)"><text fill="#595959" font-family="Calibri,Calibri_MSFontService,sans-serif" font-weight="400" font-size="41" transform="matrix(1 0 0 1 2463.11 2333)">1</text></g><g clip-path="url(#clip57)"><text fill="#595959" font-family="Calibri,Calibri_MSFontService,sans-serif" font-weight="400" font-size="41" transform="matrix(1 0 0 1 2431.8 2211)">1.5</text></g><g clip-path="url(#clip58)"><text fill="#595959" font-family="Calibri,Calibri_MSFontService,sans-serif" font-weight="400" font-size="41" transform="matrix(1 0 0 1 2463.11 2089)">2</text></g><g clip-path="url(#clip59)"><text fill="#595959" font-family="Calibri,Calibri_MSFontService,sans-serif" font-weight="400" font-size="41" transform="matrix(1 0 0 1 2431.8 1967)">2.5</text></g><g clip-path="url(#clip60)"><text fill="#595959" font-family="Calibri,Calibri_MSFontService,sans-serif" font-weight="400" font-size="41" transform="matrix(1 0 0 1 2593.57 2630)">1</text></g><g clip-path="url(#clip61)"><text fill="#595959" font-family="Calibri,Calibri_MSFontService,sans-serif" font-weight="400" font-size="41" transform="matrix(1 0 0 1 2757.08 2630)">2</text></g><g clip-path="url(#clip62)"><text fill="#595959" font-family="Calibri,Calibri_MSFontService,sans-serif" font-weight="400" font-size="41" transform="matrix(1 0 0 1 2920.58 2630)">3</text></g><g clip-path="url(#clip63)"><text fill="#595959" font-family="Calibri,Calibri_MSFontService,sans-serif" font-weight="400" font-size="41" transform="matrix(1 0 0 1 3084.08 2630)">4</text></g><g clip-path="url(#clip64)"><text fill="#595959" font-family="Calibri,Calibri_MSFontService,sans-serif" font-weight="400" font-size="41" transform="matrix(1 0 0 1 3247.59 2630)">5</text></g><g clip-path="url(#clip65)"><text fill="#595959" font-family="Calibri,Calibri_MSFontService,sans-serif" font-weight="400" font-size="41" transform="matrix(1 0 0 1 3411.09 2630)">6</text></g><g clip-path="url(#clip66)"><text fill="#595959" font-family="Calibri,Calibri_MSFontService,sans-serif" font-weight="400" font-size="41" transform="matrix(1 0 0 1 3574.59 2630)">7</text></g><g clip-path="url(#clip67)"><text fill="#595959" font-family="Calibri,Calibri_MSFontService,sans-serif" font-weight="400" font-size="41" transform="matrix(1 0 0 1 3738.1 2630)">8</text></g><g clip-path="url(#clip68)"><text fill="#595959" font-family="Calibri,Calibri_MSFontService,sans-serif" font-weight="400" font-size="41" transform="matrix(1 0 0 1 3901.6 2630)">9</text></g><g clip-path="url(#clip69)"><text fill="#595959" font-family="Calibri,Calibri_MSFontService,sans-serif" font-weight="400" font-size="64" transform="matrix(1 0 0 1 2985.86 1881)">Water vs Bar Area</text></g><g clip-path="url(#clip70)"><rect x="2899" y="2698" width="23" height="23" fill="#4472C4"/></g><g clip-path="url(#clip71)"><text fill="#595959" font-family="Calibri,Calibri_MSFontService,sans-serif" font-weight="400" font-size="41" transform="matrix(1 0 0 1 2931.58 2721)">Mon-2018-Water</text></g><g clip-path="url(#clip72)"><rect x="3279" y="2698" width="23" height="23" fill="#ED7D31"/></g><g clip-path="url(#clip73)"><text fill="#595959" font-family="Calibri,Calibri_MSFontService,sans-serif" font-weight="400" font-size="41" transform="matrix(1 0 0 1 3311.47 2721)">Mon-2018-Bar</text></g><rect x="2394.5" y="1786.5" width="1650" height="990" stroke="#D9D9D9" stroke-width="3.4375" stroke-linejoin="round" stroke-miterlimit="10" fill="none"/><rect x="4061" y="1793" width="1650" height="990" fill="#FFFFFF"/><g clip-path="url(#clip74)"><path d="M4189.5 2449.58 5660.5 2449.58M4189.5 2327.58 5660.5 2327.58M4189.5 2206.57 5660.5 2206.57M4189.5 2084.57 5660.5 2084.57M4189.5 1962.5 5660.5 1962.5" stroke="#D9D9D9" stroke-width="3.4375" stroke-linejoin="round" stroke-miterlimit="10" fill="none"/></g><g clip-path="url(#clip75)"><path d="M4229.14 2415.08 4266.14 2415.08 4266.14 2571 4229.14 2571ZM4393.14 2394.08 4430.15 2394.08 4430.15 2571 4393.14 2571ZM4556.15 2327.08 4593.15 2327.08 4593.15 2571 4556.15 2571ZM4720.15 2180.07 4757.16 2180.07 4757.16 2571 4720.15 2571ZM4883.16 2241.07 4920.16 2241.07 4920.16 2571 4883.16 2571ZM5047.17 2313.08 5084.17 2313.08 5084.17 2571 5047.17 2571ZM5210.17 2104.07 5247.17 2104.07 5247.17 2571 5210.17 2571ZM5374.18 2252.07 5411.18 2252.07 5411.18 2571 5374.18 2571ZM5537.18 2352.08 5574.18 2352.08 5574.18 2571 5537.18 2571Z" fill="#4472C4"/></g><g clip-path="url(#clip76)"><path d="M4276.14 2383.08 4313.14 2383.08 4313.14 2571 4276.14 2571ZM4440.15 2466.08 4476.15 2466.08 4476.15 2571 4440.15 2571ZM4603.15 2350.08 4640.15 2350.08 4640.15 2571 4603.15 2571ZM4767.16 2460.08 4803.16 2460.08 4803.16 2571 4767.16 2571ZM4930.16 2382.08 4967.16 2382.08 4967.16 2571 4930.16 2571ZM5094.17 2292.08 5130.17 2292.08 5130.17 2571 5094.17 2571ZM5257.17 2552.08 5294.17 2552.08 5294.17 2571 5257.17 2571ZM5421.18 2507.08 5457.18 2507.08 5457.18 2571 5421.18 2571ZM5584.18 2518.08 5621.18 2518.08 5621.18 2571 5584.18 2571Z" fill="#ED7D31"/></g><g clip-path="url(#clip77)"><path d="M4189.5 2571.5 5660.5 2571.5" stroke="#D9D9D9" stroke-width="3.4375" stroke-linejoin="round" stroke-miterlimit="10" fill="none" fill-rule="evenodd"/></g><g clip-path="url(#clip78)"><text fill="#595959" font-family="Calibri,Calibri_MSFontService,sans-serif" font-weight="400" font-size="41" transform="matrix(1 0 0 1 4130.29 2583)">0</text></g><g clip-path="url(#clip79)"><text fill="#595959" font-family="Calibri,Calibri_MSFontService,sans-serif" font-weight="400" font-size="41" transform="matrix(1 0 0 1 4098.99 2461)">0.5</text></g><g clip-path="url(#clip80)"><text fill="#595959" font-family="Calibri,Calibri_MSFontService,sans-serif" font-weight="400" font-size="41" transform="matrix(1 0 0 1 4130.29 2340)">1</text></g><g clip-path="url(#clip81)"><text fill="#595959" font-family="Calibri,Calibri_MSFontService,sans-serif" font-weight="400" font-size="41" transform="matrix(1 0 0 1 4098.99 2218)">1.5</text></g><g clip-path="url(#clip82)"><text fill="#595959" font-family="Calibri,Calibri_MSFontService,sans-serif" font-weight="400" font-size="41" transform="matrix(1 0 0 1 4130.29 2096)">2</text></g><g clip-path="url(#clip83)"><text fill="#595959" font-family="Calibri,Calibri_MSFontService,sans-serif" font-weight="400" font-size="41" transform="matrix(1 0 0 1 4098.99 1974)">2.5</text></g><g clip-path="url(#clip84)"><text fill="#595959" font-family="Calibri,Calibri_MSFontService,sans-serif" font-weight="400" font-size="41" transform="matrix(1 0 0 1 4260.76 2637)">1</text></g><g clip-path="url(#clip85)"><text fill="#595959" font-family="Calibri,Calibri_MSFontService,sans-serif" font-weight="400" font-size="41" transform="matrix(1 0 0 1 4424.27 2637)">2</text></g><g clip-path="url(#clip86)"><text fill="#595959" font-family="Calibri,Calibri_MSFontService,sans-serif" font-weight="400" font-size="41" transform="matrix(1 0 0 1 4587.77 2637)">3</text></g><g clip-path="url(#clip87)"><text fill="#595959" font-family="Calibri,Calibri_MSFontService,sans-serif" font-weight="400" font-size="41" transform="matrix(1 0 0 1 4751.27 2637)">4</text></g><g clip-path="url(#clip88)"><text fill="#595959" font-family="Calibri,Calibri_MSFontService,sans-serif" font-weight="400" font-size="41" transform="matrix(1 0 0 1 4914.77 2637)">5</text></g><g clip-path="url(#clip89)"><text fill="#595959" font-family="Calibri,Calibri_MSFontService,sans-serif" font-weight="400" font-size="41" transform="matrix(1 0 0 1 5078.28 2637)">6</text></g><g clip-path="url(#clip90)"><text fill="#595959" font-family="Calibri,Calibri_MSFontService,sans-serif" font-weight="400" font-size="41" transform="matrix(1 0 0 1 5241.78 2637)">7</text></g><g clip-path="url(#clip91)"><text fill="#595959" font-family="Calibri,Calibri_MSFontService,sans-serif" font-weight="400" font-size="41" transform="matrix(1 0 0 1 5405.28 2637)">8</text></g><g clip-path="url(#clip92)"><text fill="#595959" font-family="Calibri,Calibri_MSFontService,sans-serif" font-weight="400" font-size="41" transform="matrix(1 0 0 1 5568.79 2637)">9</text></g><g clip-path="url(#clip93)"><text fill="#595959" font-family="Calibri,Calibri_MSFontService,sans-serif" font-weight="400" font-size="64" transform="matrix(1 0 0 1 4653.04 1888)">Water vs Bar Area</text></g><g clip-path="url(#clip94)"><rect x="4567" y="2705" width="22" height="23" fill="#4472C4"/></g><g clip-path="url(#clip95)"><text fill="#595959" font-family="Calibri,Calibri_MSFontService,sans-serif" font-weight="400" font-size="41" transform="matrix(1 0 0 1 4598.77 2728)">Mon-2019-Water</text></g><g clip-path="url(#clip96)"><rect x="4946" y="2705" width="23" height="23" fill="#ED7D31"/></g><g clip-path="url(#clip97)"><text fill="#595959" font-family="Calibri,Calibri_MSFontService,sans-serif" font-weight="400" font-size="41" transform="matrix(1 0 0 1 4978.66 2728)">Mon-2019-Bar</text></g><rect x="4061.5" y="1793.5" width="1650" height="990" stroke="#D9D9D9" stroke-width="3.4375" stroke-linejoin="round" stroke-miterlimit="10" fill="none"/><rect x="3188" y="2796" width="1650" height="990" fill="#FFFFFF"/><g clip-path="url(#clip98)"><path d="M3310.5 3499.61 4787.5 3499.61M3310.5 3422.61 4787.5 3422.61M3310.5 3346.61 4787.5 3346.61M3310.5 3270.61 4787.5 3270.61M3310.5 3194.6 4787.5 3194.6M3310.5 3118.6 4787.5 3118.6M3310.5 3042.6 4787.5 3042.6M3310.5 2966.5 4787.5 2966.5" stroke="#D9D9D9" stroke-width="3.4375" stroke-linejoin="round" stroke-miterlimit="10" fill="none"/></g><g clip-path="url(#clip99)"><path d="M3350.11 3427.11 3387.11 3427.11 3387.11 3575 3350.11 3575ZM3514.12 3450.11 3551.12 3450.11 3551.12 3575 3514.12 3575ZM3679.12 3351.11 3715.12 3351.11 3715.12 3575 3679.12 3575ZM3843.13 3258.11 3880.13 3258.11 3880.13 3575 3843.13 3575ZM4007.13 3309.11 4044.13 3309.11 4044.13 3575 4007.13 3575ZM4171.14 3413.11 4208.14 3413.11 4208.14 3575 4171.14 3575ZM4335.14 3146.1 4372.14 3146.1 4372.14 3575 4335.14 3575ZM4500.15 3276.11 4536.15 3276.11 4536.15 3575 4500.15 3575ZM4664.15 3375.11 4701.15 3375.11 4701.15 3575 4664.15 3575Z" fill="#4472C4"/></g><g clip-path="url(#clip100)"><path d="M3397.11 3145.1 3434.11 3145.1 3434.11 3575 3397.11 3575ZM3561.12 3256.11 3598.12 3256.11 3598.12 3575 3561.12 3575ZM3725.12 3090.1 3762.12 3090.1 3762.12 3575 3725.12 3575ZM3890.13 3229.11 3926.13 3229.11 3926.13 3575 3890.13 3575ZM4054.13 3248.11 4091.13 3248.11 4091.13 3575 4054.13 3575ZM4218.14 3057.1 4255.14 3057.1 4255.14 3575 4218.14 3575ZM4382.14 3249.11 4419.15 3249.11 4419.15 3575 4382.14 3575ZM4546.15 3439.11 4583.15 3439.11 4583.15 3575 4546.15 3575ZM4711.15 3365.11 4747.16 3365.11 4747.16 3575 4711.15 3575Z" fill="#ED7D31"/></g><g clip-path="url(#clip101)"><path d="M3310.5 3575.5 4787.5 3575.5" stroke="#D9D9D9" stroke-width="3.4375" stroke-linejoin="round" stroke-miterlimit="10" fill="none" fill-rule="evenodd"/></g><g clip-path="url(#clip102)"><text fill="#595959" font-family="Calibri,Calibri_MSFontService,sans-serif" font-weight="400" font-size="41" transform="matrix(1 0 0 1 3250.91 3587)">0</text></g><g clip-path="url(#clip103)"><text fill="#595959" font-family="Calibri,Calibri_MSFontService,sans-serif" font-weight="400" font-size="41" transform="matrix(1 0 0 1 3219.61 3511)">0.2</text></g><g clip-path="url(#clip104)"><text fill="#595959" font-family="Calibri,Calibri_MSFontService,sans-serif" font-weight="400" font-size="41" transform="matrix(1 0 0 1 3219.61 3435)">0.4</text></g><g clip-path="url(#clip105)"><text fill="#595959" font-family="Calibri,Calibri_MSFontService,sans-serif" font-weight="400" font-size="41" transform="matrix(1 0 0 1 3219.61 3358)">0.6</text></g><g clip-path="url(#clip106)"><text fill="#595959" font-family="Calibri,Calibri_MSFontService,sans-serif" font-weight="400" font-size="41" transform="matrix(1 0 0 1 3219.61 3282)">0.8</text></g><g clip-path="url(#clip107)"><text fill="#595959" font-family="Calibri,Calibri_MSFontService,sans-serif" font-weight="400" font-size="41" transform="matrix(1 0 0 1 3250.91 3206)">1</text></g><g clip-path="url(#clip108)"><text fill="#595959" font-family="Calibri,Calibri_MSFontService,sans-serif" font-weight="400" font-size="41" transform="matrix(1 0 0 1 3219.61 3130)">1.2</text></g><g clip-path="url(#clip109)"><text fill="#595959" font-family="Calibri,Calibri_MSFontService,sans-serif" font-weight="400" font-size="41" transform="matrix(1 0 0 1 3219.61 3054)">1.4</text></g><g clip-path="url(#clip110)"><text fill="#595959" font-family="Calibri,Calibri_MSFontService,sans-serif" font-weight="400" font-size="41" transform="matrix(1 0 0 1 3219.61 2978)">1.6</text></g><g clip-path="url(#clip111)"><text fill="#595959" font-family="Calibri,Calibri_MSFontService,sans-serif" font-weight="400" font-size="41" transform="matrix(1 0 0 1 3381.73 3640)">1</text></g><g clip-path="url(#clip112)"><text fill="#595959" font-family="Calibri,Calibri_MSFontService,sans-serif" font-weight="400" font-size="41" transform="matrix(1 0 0 1 3545.93 3640)">2</text></g><g clip-path="url(#clip113)"><text fill="#595959" font-family="Calibri,Calibri_MSFontService,sans-serif" font-weight="400" font-size="41" transform="matrix(1 0 0 1 3710.12 3640)">3</text></g><g clip-path="url(#clip114)"><text fill="#595959" font-family="Calibri,Calibri_MSFontService,sans-serif" font-weight="400" font-size="41" transform="matrix(1 0 0 1 3874.32 3640)">4</text></g><g clip-path="url(#clip115)"><text fill="#595959" font-family="Calibri,Calibri_MSFontService,sans-serif" font-weight="400" font-size="41" transform="matrix(1 0 0 1 4038.52 3640)">5</text></g><g clip-path="url(#clip116)"><text fill="#595959" font-family="Calibri,Calibri_MSFontService,sans-serif" font-weight="400" font-size="41" transform="matrix(1 0 0 1 4202.72 3640)">6</text></g><g clip-path="url(#clip117)"><text fill="#595959" font-family="Calibri,Calibri_MSFontService,sans-serif" font-weight="400" font-size="41" transform="matrix(1 0 0 1 4366.92 3640)">7</text></g><g clip-path="url(#clip118)"><text fill="#595959" font-family="Calibri,Calibri_MSFontService,sans-serif" font-weight="400" font-size="41" transform="matrix(1 0 0 1 4531.12 3640)">8</text></g><g clip-path="url(#clip119)"><text fill="#595959" font-family="Calibri,Calibri_MSFontService,sans-serif" font-weight="400" font-size="41" transform="matrix(1 0 0 1 4695.31 3640)">9</text></g><g clip-path="url(#clip120)"><text fill="#595959" font-family="Calibri,Calibri_MSFontService,sans-serif" font-weight="400" font-size="64" transform="matrix(1 0 0 1 3779.92 2892)">Water vs Bar Area</text></g><g clip-path="url(#clip121)"><rect x="3693" y="3709" width="23" height="23" fill="#4472C4"/></g><g clip-path="url(#clip122)"><text fill="#595959" font-family="Calibri,Calibri_MSFontService,sans-serif" font-weight="400" font-size="41" transform="matrix(1 0 0 1 3725.65 3732)">Mon-2020-Water</text></g><g clip-path="url(#clip123)"><rect x="4073" y="3709" width="23" height="23" fill="#ED7D31"/></g><g clip-path="url(#clip124)"><text fill="#595959" font-family="Calibri,Calibri_MSFontService,sans-serif" font-weight="400" font-size="41" transform="matrix(1 0 0 1 4105.53 3732)">Mon-2020-Bar</text></g><rect x="3188.5" y="2796.5" width="1650" height="990" stroke="#D9D9D9" stroke-width="3.4375" stroke-linejoin="round" stroke-miterlimit="10" fill="none"/></g></svg>