<svg width="3317" height="3014" xmlns="http://www.w3.org/2000/svg" xmlns:xlink="http://www.w3.org/1999/xlink" xml:space="preserve" overflow="hidden"><defs><clipPath id="clip0"><rect x="2438" y="32" width="3317" height="3014"/></clipPath><clipPath id="clip1"><rect x="2440" y="36" width="1650" height="990"/></clipPath><clipPath id="clip2"><rect x="2562" y="206" width="1481" height="612"/></clipPath><clipPath id="clip3"><rect x="2562" y="206" width="1481" height="612"/></clipPath><clipPath id="clip4"><rect x="2440" y="36" width="1650" height="990"/></clipPath><clipPath id="clip5"><rect x="2440" y="36" width="1650" height="990"/></clipPath><clipPath id="clip6"><rect x="2440" y="36" width="1650" height="990"/></clipPath><clipPath id="clip7"><rect x="2440" y="36" width="1650" height="990"/></clipPath><clipPath id="clip8"><rect x="2440" y="36" width="1650" height="990"/></clipPath><clipPath id="clip9"><rect x="2440" y="36" width="1650" height="990"/></clipPath><clipPath id="clip10"><rect x="2440" y="36" width="1650" height="990"/></clipPath><clipPath id="clip11"><rect x="2440" y="36" width="1650" height="990"/></clipPath><clipPath id="clip12"><rect x="2440" y="36" width="1650" height="990"/></clipPath><clipPath id="clip13"><rect x="2440" y="36" width="1650" height="990"/></clipPath><clipPath id="clip14"><rect x="2440" y="36" width="1650" height="990"/></clipPath><clipPath id="clip15"><rect x="2440" y="36" width="1650" height="990"/></clipPath><clipPath id="clip16"><rect x="2440" y="36" width="1650" height="990"/></clipPath><clipPath id="clip17"><rect x="2440" y="36" width="1650" height="990"/></clipPath><clipPath id="clip18"><rect x="2440" y="36" width="1650" height="990"/></clipPath><clipPath id="clip19"><rect x="2440" y="36" width="1650" height="990"/></clipPath><clipPath id="clip20"><rect x="2440" y="36" width="1650" height="990"/></clipPath><clipPath id="clip21"><rect x="2440" y="36" width="1650" height="990"/></clipPath><clipPath id="clip22"><rect x="2440" y="36" width="1650" height="990"/></clipPath><clipPath id="clip23"><rect x="2440" y="36" width="1650" height="990"/></clipPath><clipPath id="clip24"><rect x="2440" y="36" width="1650" height="990"/></clipPath><clipPath id="clip25"><rect x="2440" y="36" width="1650" height="990"/></clipPath><clipPath id="clip26"><rect x="2440" y="36" width="1650" height="990"/></clipPath><clipPath id="clip27"><rect x="4102" y="32" width="1650" height="990"/></clipPath><clipPath id="clip28"><rect x="4222" y="202" width="1483" height="612"/></clipPath><clipPath id="clip29"><rect x="4222" y="202" width="1483" height="612"/></clipPath><clipPath id="clip30"><rect x="4102" y="32" width="1650" height="990"/></clipPath><clipPath id="clip31"><rect x="4102" y="32" width="1650" height="990"/></clipPath><clipPath id="clip32"><rect x="4102" y="32" width="1650" height="990"/></clipPath><clipPath id="clip33"><rect x="4102" y="32" width="1650" height="990"/></clipPath><clipPath id="clip34"><rect x="4102" y="32" width="1650" height="990"/></clipPath><clipPath id="clip35"><rect x="4102" y="32" width="1650" height="990"/></clipPath><clipPath id="clip36"><rect x="4102" y="32" width="1650" height="990"/></clipPath><clipPath id="clip37"><rect x="4102" y="32" width="1650" height="990"/></clipPath><clipPath id="clip38"><rect x="4102" y="32" width="1650" height="990"/></clipPath><clipPath id="clip39"><rect x="4102" y="32" width="1650" height="990"/></clipPath><clipPath id="clip40"><rect x="4102" y="32" width="1650" height="990"/></clipPath><clipPath id="clip41"><rect x="4102" y="32" width="1650" height="990"/></clipPath><clipPath id="clip42"><rect x="4102" y="32" width="1650" height="990"/></clipPath><clipPath id="clip43"><rect x="4102" y="32" width="1650" height="990"/></clipPath><clipPath id="clip44"><rect x="4102" y="32" width="1650" height="990"/></clipPath><clipPath id="clip45"><rect x="4102" y="32" width="1650" height="990"/></clipPath><clipPath id="clip46"><rect x="4102" y="32" width="1650" height="990"/></clipPath><clipPath id="clip47"><rect x="4102" y="32" width="1650" height="990"/></clipPath><clipPath id="clip48"><rect x="4102" y="32" width="1650" height="990"/></clipPath><clipPath id="clip49"><rect x="4102" y="32" width="1650" height="990"/></clipPath><clipPath id="clip50"><rect x="4102" y="32" width="1650" height="990"/></clipPath><clipPath id="clip51"><rect x="4102" y="32" width="1650" height="990"/></clipPath><clipPath id="clip52"><rect x="2438" y="1046" width="1650" height="990"/></clipPath><clipPath id="clip53"><rect x="2566" y="1216" width="1475" height="612"/></clipPath><clipPath id="clip54"><rect x="2566" y="1216" width="1475" height="612"/></clipPath><clipPath id="clip55"><rect x="2438" y="1046" width="1650" height="990"/></clipPath><clipPath id="clip56"><rect x="2438" y="1046" width="1650" height="990"/></clipPath><clipPath id="clip57"><rect x="2438" y="1046" width="1650" height="990"/></clipPath><clipPath id="clip58"><rect x="2438" y="1046" width="1650" height="990"/></clipPath><clipPath id="clip59"><rect x="2438" y="1046" width="1650" height="990"/></clipPath><clipPath id="clip60"><rect x="2438" y="1046" width="1650" height="990"/></clipPath><clipPath id="clip61"><rect x="2438" y="1046" width="1650" height="990"/></clipPath><clipPath id="clip62"><rect x="2438" y="1046" width="1650" height="990"/></clipPath><clipPath id="clip63"><rect x="2438" y="1046" width="1650" height="990"/></clipPath><clipPath id="clip64"><rect x="2438" y="1046" width="1650" height="990"/></clipPath><clipPath id="clip65"><rect x="2438" y="1046" width="1650" height="990"/></clipPath><clipPath id="clip66"><rect x="2438" y="1046" width="1650" height="990"/></clipPath><clipPath id="clip67"><rect x="2438" y="1046" width="1650" height="990"/></clipPath><clipPath id="clip68"><rect x="2438" y="1046" width="1650" height="990"/></clipPath><clipPath id="clip69"><rect x="2438" y="1046" width="1650" height="990"/></clipPath><clipPath id="clip70"><rect x="2438" y="1046" width="1650" height="990"/></clipPath><clipPath id="clip71"><rect x="2438" y="1046" width="1650" height="990"/></clipPath><clipPath id="clip72"><rect x="2438" y="1046" width="1650" height="990"/></clipPath><clipPath id="clip73"><rect x="2438" y="1046" width="1650" height="990"/></clipPath><clipPath id="clip74"><rect x="2438" y="1046" width="1650" height="990"/></clipPath><clipPath id="clip75"><rect x="2438" y="1046" width="1650" height="990"/></clipPath><clipPath id="clip76"><rect x="4102" y="1050" width="1650" height="990"/></clipPath><clipPath id="clip77"><rect x="4230" y="1220" width="1475" height="612"/></clipPath><clipPath id="clip78"><rect x="4230" y="1220" width="1475" height="612"/></clipPath><clipPath id="clip79"><rect x="4102" y="1050" width="1650" height="990"/></clipPath><clipPath id="clip80"><rect x="4102" y="1050" width="1650" height="990"/></clipPath><clipPath id="clip81"><rect x="4102" y="1050" width="1650" height="990"/></clipPath><clipPath id="clip82"><rect x="4102" y="1050" width="1650" height="990"/></clipPath><clipPath id="clip83"><rect x="4102" y="1050" width="1650" height="990"/></clipPath><clipPath id="clip84"><rect x="4102" y="1050" width="1650" height="990"/></clipPath><clipPath id="clip85"><rect x="4102" y="1050" width="1650" height="990"/></clipPath><clipPath id="clip86"><rect x="4102" y="1050" width="1650" height="990"/></clipPath><clipPath id="clip87"><rect x="4102" y="1050" width="1650" height="990"/></clipPath><clipPath id="clip88"><rect x="4102" y="1050" width="1650" height="990"/></clipPath><clipPath id="clip89"><rect x="4102" y="1050" width="1650" height="990"/></clipPath><clipPath id="clip90"><rect x="4102" y="1050" width="1650" height="990"/></clipPath><clipPath id="clip91"><rect x="4102" y="1050" width="1650" height="990"/></clipPath><clipPath id="clip92"><rect x="4102" y="1050" width="1650" height="990"/></clipPath><clipPath id="clip93"><rect x="4102" y="1050" width="1650" height="990"/></clipPath><clipPath id="clip94"><rect x="4102" y="1050" width="1650" height="990"/></clipPath><clipPath id="clip95"><rect x="4102" y="1050" width="1650" height="990"/></clipPath><clipPath id="clip96"><rect x="4102" y="1050" width="1650" height="990"/></clipPath><clipPath id="clip97"><rect x="4102" y="1050" width="1650" height="990"/></clipPath><clipPath id="clip98"><rect x="4102" y="1050" width="1650" height="990"/></clipPath><clipPath id="clip99"><rect x="4102" y="1050" width="1650" height="990"/></clipPath><clipPath id="clip100"><rect x="4102" y="1050" width="1650" height="990"/></clipPath><clipPath id="clip101"><rect x="4102" y="1050" width="1650" height="990"/></clipPath><clipPath id="clip102"><rect x="4102" y="1050" width="1650" height="990"/></clipPath><clipPath id="clip103"><rect x="4102" y="1050" width="1650" height="990"/></clipPath><clipPath id="clip104"><rect x="3208" y="2053" width="1650" height="990"/></clipPath><clipPath id="clip105"><rect x="3336" y="2223" width="1475" height="613"/></clipPath><clipPath id="clip106"><rect x="3336" y="2223" width="1475" height="613"/></clipPath><clipPath id="clip107"><rect x="3208" y="2053" width="1650" height="990"/></clipPath><clipPath id="clip108"><rect x="3208" y="2053" width="1650" height="990"/></clipPath><clipPath id="clip109"><rect x="3208" y="2053" width="1650" height="990"/></clipPath><clipPath id="clip110"><rect x="3208" y="2053" width="1650" height="990"/></clipPath><clipPath id="clip111"><rect x="3208" y="2053" width="1650" height="990"/></clipPath><clipPath id="clip112"><rect x="3208" y="2053" width="1650" height="990"/></clipPath><clipPath id="clip113"><rect x="3208" y="2053" width="1650" height="990"/></clipPath><clipPath id="clip114"><rect x="3208" y="2053" width="1650" height="990"/></clipPath><clipPath id="clip115"><rect x="3208" y="2053" width="1650" height="990"/></clipPath><clipPath id="clip116"><rect x="3208" y="2053" width="1650" height="990"/></clipPath><clipPath id="clip117"><rect x="3208" y="2053" width="1650" height="990"/></clipPath><clipPath id="clip118"><rect x="3208" y="2053" width="1650" height="990"/></clipPath><clipPath id="clip119"><rect x="3208" y="2053" width="1650" height="990"/></clipPath><clipPath id="clip120"><rect x="3208" y="2053" width="1650" height="990"/></clipPath><clipPath id="clip121"><rect x="3208" y="2053" width="1650" height="990"/></clipPath><clipPath id="clip122"><rect x="3208" y="2053" width="1650" height="990"/></clipPath><clipPath id="clip123"><rect x="3208" y="2053" width="1650" height="990"/></clipPath><clipPath id="clip124"><rect x="3208" y="2053" width="1650" height="990"/></clipPath><clipPath id="clip125"><rect x="3208" y="2053" width="1650" height="990"/></clipPath><clipPath id="clip126"><rect x="3208" y="2053" width="1650" height="990"/></clipPath><clipPath id="clip127"><rect x="3208" y="2053" width="1650" height="990"/></clipPath></defs><g clip-path="url(#clip0)" transform="translate(-2438 -32)"><rect x="2441" y="36.0001" width="1650" height="990" fill="#FFFFFF"/><g clip-path="url(#clip1)"><path d="M2562.5 727.524 4040.5 727.524M2562.5 640.521 4040.5 640.521M2562.5 553.518 4040.5 553.518M2562.5 467.516 4040.5 467.516M2562.5 380.513 4040.5 380.513M2562.5 293.51 4040.5 293.51M2562.5 206.5 4040.5 206.5" stroke="#D9D9D9" stroke-width="3.4375" stroke-linejoin="round" stroke-miterlimit="10" fill="none"/></g><g clip-path="url(#clip2)"><path d="M2603.09 682.022 2639.09 682.022 2639.09 815 2603.09 815ZM2767.09 647.021 2804.09 647.021 2804.09 815 2767.09 815ZM2931.1 641.021 2968.1 641.021 2968.1 815 2931.1 815ZM3095.1 659.022 3132.1 659.022 3132.1 815 3095.1 815ZM3259.11 605.02 3296.11 605.02 3296.11 815 3259.11 815ZM3424.11 561.018 3460.11 561.018 3460.11 815 3424.11 815ZM3588.12 574.019 3625.12 574.019 3625.12 815 3588.12 815ZM3752.12 589.019 3789.12 589.019 3789.12 815 3752.12 815ZM3916.13 630.021 3953.13 630.021 3953.13 815 3916.13 815Z" fill="#4472C4"/></g><g clip-path="url(#clip3)"><path d="M2649.09 481.016 2686.09 481.016 2686.09 815 2649.09 815ZM2814.09 295.01 2850.09 295.01 2850.09 815 2814.09 815ZM2978.1 395.013 3015.1 395.013 3015.1 815 2978.1 815ZM3142.1 638.021 3179.1 638.021 3179.1 815 3142.1 815ZM3306.11 561.018 3343.11 561.018 3343.11 815 3306.11 815ZM3470.11 464.015 3507.12 464.015 3507.12 815 3470.11 815ZM3635.12 437.014 3671.12 437.014 3671.12 815 3635.12 815ZM3799.12 593.019 3836.13 593.019 3836.13 815 3799.12 815ZM3963.13 542.018 4000.13 542.018 4000.13 815 3963.13 815Z" fill="#ED7D31"/></g><g clip-path="url(#clip4)"><path d="M2562.5 814.5 4040.5 814.5" stroke="#D9D9D9" stroke-width="3.4375" stroke-linejoin="round" stroke-miterlimit="10" fill="none" fill-rule="evenodd"/></g><g clip-path="url(#clip5)"><text fill="#595959" font-family="Calibri,Calibri_MSFontService,sans-serif" font-weight="400" font-size="41" transform="matrix(1 0 0 1 2503.26 826)">0</text></g><g clip-path="url(#clip6)"><text fill="#595959" font-family="Calibri,Calibri_MSFontService,sans-serif" font-weight="400" font-size="41" transform="matrix(1 0 0 1 2471.95 739)">0.2</text></g><g clip-path="url(#clip7)"><text fill="#595959" font-family="Calibri,Calibri_MSFontService,sans-serif" font-weight="400" font-size="41" transform="matrix(1 0 0 1 2471.95 653)">0.4</text></g><g clip-path="url(#clip8)"><text fill="#595959" font-family="Calibri,Calibri_MSFontService,sans-serif" font-weight="400" font-size="41" transform="matrix(1 0 0 1 2471.95 566)">0.6</text></g><g clip-path="url(#clip9)"><text fill="#595959" font-family="Calibri,Calibri_MSFontService,sans-serif" font-weight="400" font-size="41" transform="matrix(1 0 0 1 2471.95 479)">0.8</text></g><g clip-path="url(#clip10)"><text fill="#595959" font-family="Calibri,Calibri_MSFontService,sans-serif" font-weight="400" font-size="41" transform="matrix(1 0 0 1 2503.26 392)">1</text></g><g clip-path="url(#clip11)"><text fill="#595959" font-family="Calibri,Calibri_MSFontService,sans-serif" font-weight="400" font-size="41" transform="matrix(1 0 0 1 2471.95 305)">1.2</text></g><g clip-path="url(#clip12)"><text fill="#595959" font-family="Calibri,Calibri_MSFontService,sans-serif" font-weight="400" font-size="41" transform="matrix(1 0 0 1 2471.95 218)">1.4</text></g><g clip-path="url(#clip13)"><text fill="#595959" font-family="Calibri,Calibri_MSFontService,sans-serif" font-weight="400" font-size="41" transform="matrix(1 0 0 1 2634.07 880)">1</text></g><g clip-path="url(#clip14)"><text fill="#595959" font-family="Calibri,Calibri_MSFontService,sans-serif" font-weight="400" font-size="41" transform="matrix(1 0 0 1 2798.27 880)">2</text></g><g clip-path="url(#clip15)"><text fill="#595959" font-family="Calibri,Calibri_MSFontService,sans-serif" font-weight="400" font-size="41" transform="matrix(1 0 0 1 2962.47 880)">3</text></g><g clip-path="url(#clip16)"><text fill="#595959" font-family="Calibri,Calibri_MSFontService,sans-serif" font-weight="400" font-size="41" transform="matrix(1 0 0 1 3126.67 880)">4</text></g><g clip-path="url(#clip17)"><text fill="#595959" font-family="Calibri,Calibri_MSFontService,sans-serif" font-weight="400" font-size="41" transform="matrix(1 0 0 1 3290.87 880)">5</text></g><g clip-path="url(#clip18)"><text fill="#595959" font-family="Calibri,Calibri_MSFontService,sans-serif" font-weight="400" font-size="41" transform="matrix(1 0 0 1 3455.06 880)">6</text></g><g clip-path="url(#clip19)"><text fill="#595959" font-family="Calibri,Calibri_MSFontService,sans-serif" font-weight="400" font-size="41" transform="matrix(1 0 0 1 3619.26 880)">7</text></g><g clip-path="url(#clip20)"><text fill="#595959" font-family="Calibri,Calibri_MSFontService,sans-serif" font-weight="400" font-size="41" transform="matrix(1 0 0 1 3783.46 880)">8</text></g><g clip-path="url(#clip21)"><text fill="#595959" font-family="Calibri,Calibri_MSFontService,sans-serif" font-weight="400" font-size="41" transform="matrix(1 0 0 1 3947.66 880)">9</text></g><g clip-path="url(#clip22)"><text fill="#595959" font-family="Calibri,Calibri_MSFontService,sans-serif" font-weight="400" font-size="64" transform="matrix(1 0 0 1 3032.26 131)">Water vs Bar Area</text></g><g clip-path="url(#clip23)"><rect x="2952" y="949" width="22" height="22" fill="#4472C4"/></g><g clip-path="url(#clip24)"><text fill="#595959" font-family="Calibri,Calibri_MSFontService,sans-serif" font-weight="400" font-size="41" transform="matrix(1 0 0 1 2984.05 971)">Post-2016-Water</text></g><g clip-path="url(#clip25)"><rect x="3325" y="949" width="23" height="22" fill="#ED7D31"/></g><g clip-path="url(#clip26)"><text fill="#595959" font-family="Calibri,Calibri_MSFontService,sans-serif" font-weight="400" font-size="41" transform="matrix(1 0 0 1 3357.5 971)">Post-2016-Bar</text></g><rect x="2441.5" y="36.4999" width="1650" height="990" stroke="#D9D9D9" stroke-width="3.4375" stroke-linejoin="round" stroke-miterlimit="10" fill="none"/><rect x="4103" y="33" width="1650" height="990" fill="#FFFFFF"/><g clip-path="url(#clip27)"><path d="M4222.5 709.523 5702.5 709.523M4222.5 608.52 5702.5 608.52M4222.5 507.517 5702.5 507.517M4222.5 405.513 5702.5 405.513M4222.5 304.51 5702.5 304.51M4222.5 202.5 5702.5 202.5" stroke="#D9D9D9" stroke-width="3.4375" stroke-linejoin="round" stroke-miterlimit="10" fill="none"/></g><g clip-path="url(#clip28)"><path d="M4263.14 739.024 4300.14 739.024 4300.14 811 4263.14 811ZM4427.15 748.025 4464.15 748.025 4464.15 811 4427.15 811ZM4592.15 714.023 4629.15 714.023 4629.15 811 4592.15 811ZM4756.16 692.023 4793.16 692.023 4793.16 811 4756.16 811ZM4921.16 709.023 4957.16 709.023 4957.16 811 4921.16 811ZM5085.17 682.022 5122.17 682.022 5122.17 811 5085.17 811ZM5249.17 658.022 5286.17 658.022 5286.17 811 5249.17 811ZM5414.18 710.023 5451.18 710.023 5451.18 811 5414.18 811ZM5578.18 739.024 5615.18 739.024 5615.18 811 5578.18 811Z" fill="#4472C4"/></g><g clip-path="url(#clip29)"><path d="M4310.14 658.022 4347.14 658.022 4347.14 811 4310.14 811ZM4474.15 319.01 4511.15 319.01 4511.15 811 4474.15 811ZM4639.15 469.015 4676.15 469.015 4676.15 811 4639.15 811ZM4803.16 499.016 4840.16 499.016 4840.16 811 4803.16 811ZM4967.16 730.024 5004.16 730.024 5004.16 811 4967.16 811ZM5132.17 694.023 5169.17 694.023 5169.17 811 5132.17 811ZM5296.17 738.024 5333.17 738.024 5333.17 811 5296.17 811ZM5460.18 712.023 5497.18 712.023 5497.18 811 5460.18 811ZM5625.18 734.024 5662.19 734.024 5662.19 811 5625.18 811Z" fill="#ED7D31"/></g><g clip-path="url(#clip30)"><path d="M4222.5 811.5 5702.5 811.5" stroke="#D9D9D9" stroke-width="3.4375" stroke-linejoin="round" stroke-miterlimit="10" fill="none" fill-rule="evenodd"/></g><g clip-path="url(#clip31)"><text fill="#595959" font-family="Calibri,Calibri_MSFontService,sans-serif" font-weight="400" font-size="41" transform="matrix(1 0 0 1 4163.75 823)">0</text></g><g clip-path="url(#clip32)"><text fill="#595959" font-family="Calibri,Calibri_MSFontService,sans-serif" font-weight="400" font-size="41" transform="matrix(1 0 0 1 4132.45 722)">0.5</text></g><g clip-path="url(#clip33)"><text fill="#595959" font-family="Calibri,Calibri_MSFontService,sans-serif" font-weight="400" font-size="41" transform="matrix(1 0 0 1 4163.75 620)">1</text></g><g clip-path="url(#clip34)"><text fill="#595959" font-family="Calibri,Calibri_MSFontService,sans-serif" font-weight="400" font-size="41" transform="matrix(1 0 0 1 4132.45 519)">1.5</text></g><g clip-path="url(#clip35)"><text fill="#595959" font-family="Calibri,Calibri_MSFontService,sans-serif" font-weight="400" font-size="41" transform="matrix(1 0 0 1 4163.75 417)">2</text></g><g clip-path="url(#clip36)"><text fill="#595959" font-family="Calibri,Calibri_MSFontService,sans-serif" font-weight="400" font-size="41" transform="matrix(1 0 0 1 4132.45 316)">2.5</text></g><g clip-path="url(#clip37)"><text fill="#595959" font-family="Calibri,Calibri_MSFontService,sans-serif" font-weight="400" font-size="41" transform="matrix(1 0 0 1 4163.75 214)">3</text></g><g clip-path="url(#clip38)"><text fill="#595959" font-family="Calibri,Calibri_MSFontService,sans-serif" font-weight="400" font-size="41" transform="matrix(1 0 0 1 4294.65 877)">1</text></g><g clip-path="url(#clip39)"><text fill="#595959" font-family="Calibri,Calibri_MSFontService,sans-serif" font-weight="400" font-size="41" transform="matrix(1 0 0 1 4459.02 877)">2</text></g><g clip-path="url(#clip40)"><text fill="#595959" font-family="Calibri,Calibri_MSFontService,sans-serif" font-weight="400" font-size="41" transform="matrix(1 0 0 1 4623.39 877)">3</text></g><g clip-path="url(#clip41)"><text fill="#595959" font-family="Calibri,Calibri_MSFontService,sans-serif" font-weight="400" font-size="41" transform="matrix(1 0 0 1 4787.76 877)">4</text></g><g clip-path="url(#clip42)"><text fill="#595959" font-family="Calibri,Calibri_MSFontService,sans-serif" font-weight="400" font-size="41" transform="matrix(1 0 0 1 4952.13 877)">5</text></g><g clip-path="url(#clip43)"><text fill="#595959" font-family="Calibri,Calibri_MSFontService,sans-serif" font-weight="400" font-size="41" transform="matrix(1 0 0 1 5116.5 877)">6</text></g><g clip-path="url(#clip44)"><text fill="#595959" font-family="Calibri,Calibri_MSFontService,sans-serif" font-weight="400" font-size="41" transform="matrix(1 0 0 1 5280.87 877)">7</text></g><g clip-path="url(#clip45)"><text fill="#595959" font-family="Calibri,Calibri_MSFontService,sans-serif" font-weight="400" font-size="41" transform="matrix(1 0 0 1 5445.24 877)">8</text></g><g clip-path="url(#clip46)"><text fill="#595959" font-family="Calibri,Calibri_MSFontService,sans-serif" font-weight="400" font-size="41" transform="matrix(1 0 0 1 5609.6 877)">9</text></g><g clip-path="url(#clip47)"><text fill="#595959" font-family="Calibri,Calibri_MSFontService,sans-serif" font-weight="400" font-size="64" transform="matrix(1 0 0 1 4694.29 128)">Water vs Bar Area</text></g><g clip-path="url(#clip48)"><rect x="4614" y="945" width="22" height="23.0001" fill="#4472C4"/></g><g clip-path="url(#clip49)"><text fill="#595959" font-family="Calibri,Calibri_MSFontService,sans-serif" font-weight="400" font-size="41" transform="matrix(1 0 0 1 4646.08 968)">Post-2017-Water</text></g><g clip-path="url(#clip50)"><rect x="4987" y="945" width="23" height="23.0001" fill="#ED7D31"/></g><g clip-path="url(#clip51)"><text fill="#595959" font-family="Calibri,Calibri_MSFontService,sans-serif" font-weight="400" font-size="41" transform="matrix(1 0 0 1 5019.53 968)">Post-2017-Bar</text></g><rect x="4103.5" y="33.4998" width="1650" height="990" stroke="#D9D9D9" stroke-width="3.4375" stroke-linejoin="round" stroke-miterlimit="10" fill="none"/><rect x="2439" y="1047" width="1650" height="990" fill="#FFFFFF"/><g clip-path="url(#clip52)"><path d="M2566.5 1703.56 4038.5 1703.56M2566.5 1581.55 4038.5 1581.55M2566.5 1460.55 4038.5 1460.55M2566.5 1338.54 4038.5 1338.54M2566.5 1216.5 4038.5 1216.5" stroke="#D9D9D9" stroke-width="3.4375" stroke-linejoin="round" stroke-miterlimit="10" fill="none"/></g><g clip-path="url(#clip53)"><path d="M2607.09 1699.06 2644.09 1699.06 2644.09 1826 2607.09 1826ZM2771.09 1749.06 2807.09 1749.06 2807.09 1826 2771.09 1826ZM2934.1 1737.06 2971.1 1737.06 2971.1 1826 2934.1 1826ZM3098.1 1705.06 3134.1 1705.06 3134.1 1826 3098.1 1826ZM3261.11 1748.06 3298.11 1748.06 3298.11 1826 3261.11 1826ZM3425.11 1739.06 3461.11 1739.06 3461.11 1826 3425.11 1826ZM3588.12 1642.05 3625.12 1642.05 3625.12 1826 3588.12 1826ZM3752.12 1704.06 3788.12 1704.06 3788.12 1826 3752.12 1826ZM3915.13 1717.06 3952.13 1717.06 3952.13 1826 3915.13 1826Z" fill="#4472C4"/></g><g clip-path="url(#clip54)"><path d="M2654.09 1627.05 2690.09 1627.05 2690.09 1826 2654.09 1826ZM2817.09 1352.04 2854.09 1352.04 2854.09 1826 2817.09 1826ZM2981.1 1447.05 3017.1 1447.05 3017.1 1826 2981.1 1826ZM3144.1 1646.05 3181.1 1646.05 3181.1 1826 3144.1 1826ZM3308.11 1570.05 3344.11 1570.05 3344.11 1826 3308.11 1826ZM3471.11 1322.04 3508.12 1322.04 3508.12 1826 3471.11 1826ZM3635.12 1617.05 3671.12 1617.05 3671.12 1826 3635.12 1826ZM3798.12 1725.06 3835.13 1725.06 3835.13 1826 3798.12 1826ZM3962.13 1641.05 3998.13 1641.05 3998.13 1826 3962.13 1826Z" fill="#ED7D31"/></g><g clip-path="url(#clip55)"><path d="M2566.5 1825.5 4038.5 1825.5" stroke="#D9D9D9" stroke-width="3.4375" stroke-linejoin="round" stroke-miterlimit="10" fill="none" fill-rule="evenodd"/></g><g clip-path="url(#clip56)"><text fill="#595959" font-family="Calibri,Calibri_MSFontService,sans-serif" font-weight="400" font-size="41" transform="matrix(1 0 0 1 2507.79 1837)">0</text></g><g clip-path="url(#clip57)"><text fill="#595959" font-family="Calibri,Calibri_MSFontService,sans-serif" font-weight="400" font-size="41" transform="matrix(1 0 0 1 2476.49 1715)">0.5</text></g><g clip-path="url(#clip58)"><text fill="#595959" font-family="Calibri,Calibri_MSFontService,sans-serif" font-weight="400" font-size="41" transform="matrix(1 0 0 1 2507.79 1594)">1</text></g><g clip-path="url(#clip59)"><text fill="#595959" font-family="Calibri,Calibri_MSFontService,sans-serif" font-weight="400" font-size="41" transform="matrix(1 0 0 1 2476.49 1472)">1.5</text></g><g clip-path="url(#clip60)"><text fill="#595959" font-family="Calibri,Calibri_MSFontService,sans-serif" font-weight="400" font-size="41" transform="matrix(1 0 0 1 2507.79 1350)">2</text></g><g clip-path="url(#clip61)"><text fill="#595959" font-family="Calibri,Calibri_MSFontService,sans-serif" font-weight="400" font-size="41" transform="matrix(1 0 0 1 2476.49 1228)">2.5</text></g><g clip-path="url(#clip62)"><text fill="#595959" font-family="Calibri,Calibri_MSFontService,sans-serif" font-weight="400" font-size="41" transform="matrix(1 0 0 1 2638.26 1891)">1</text></g><g clip-path="url(#clip63)"><text fill="#595959" font-family="Calibri,Calibri_MSFontService,sans-serif" font-weight="400" font-size="41" transform="matrix(1 0 0 1 2801.77 1891)">2</text></g><g clip-path="url(#clip64)"><text fill="#595959" font-family="Calibri,Calibri_MSFontService,sans-serif" font-weight="400" font-size="41" transform="matrix(1 0 0 1 2965.27 1891)">3</text></g><g clip-path="url(#clip65)"><text fill="#595959" font-family="Calibri,Calibri_MSFontService,sans-serif" font-weight="400" font-size="41" transform="matrix(1 0 0 1 3128.77 1891)">4</text></g><g clip-path="url(#clip66)"><text fill="#595959" font-family="Calibri,Calibri_MSFontService,sans-serif" font-weight="400" font-size="41" transform="matrix(1 0 0 1 3292.27 1891)">5</text></g><g clip-path="url(#clip67)"><text fill="#595959" font-family="Calibri,Calibri_MSFontService,sans-serif" font-weight="400" font-size="41" transform="matrix(1 0 0 1 3455.78 1891)">6</text></g><g clip-path="url(#clip68)"><text fill="#595959" font-family="Calibri,Calibri_MSFontService,sans-serif" font-weight="400" font-size="41" transform="matrix(1 0 0 1 3619.28 1891)">7</text></g><g clip-path="url(#clip69)"><text fill="#595959" font-family="Calibri,Calibri_MSFontService,sans-serif" font-weight="400" font-size="41" transform="matrix(1 0 0 1 3782.78 1891)">8</text></g><g clip-path="url(#clip70)"><text fill="#595959" font-family="Calibri,Calibri_MSFontService,sans-serif" font-weight="400" font-size="41" transform="matrix(1 0 0 1 3946.29 1891)">9</text></g><g clip-path="url(#clip71)"><text fill="#595959" font-family="Calibri,Calibri_MSFontService,sans-serif" font-weight="400" font-size="64" transform="matrix(1 0 0 1 3030.55 1142)">Water vs Bar Area</text></g><g clip-path="url(#clip72)"><rect x="2950" y="1959" width="23" height="23" fill="#4472C4"/></g><g clip-path="url(#clip73)"><text fill="#595959" font-family="Calibri,Calibri_MSFontService,sans-serif" font-weight="400" font-size="41" transform="matrix(1 0 0 1 2982.33 1982)">Post-2018-Water</text></g><g clip-path="url(#clip74)"><rect x="3324" y="1959" width="22" height="23" fill="#ED7D31"/></g><g clip-path="url(#clip75)"><text fill="#595959" font-family="Calibri,Calibri_MSFontService,sans-serif" font-weight="400" font-size="41" transform="matrix(1 0 0 1 3355.78 1982)">Post-2018-Bar</text></g><rect x="2439.5" y="1047.5" width="1650" height="990" stroke="#D9D9D9" stroke-width="3.4375" stroke-linejoin="round" stroke-miterlimit="10" fill="none"/><rect x="4103" y="1050" width="1650" height="990" fill="#FFFFFF"/><g clip-path="url(#clip76)"><path d="M4230.5 1761.56 5702.5 1761.56M4230.5 1693.56 5702.5 1693.56M4230.5 1625.55 5702.5 1625.55M4230.5 1558.55 5702.5 1558.55M4230.5 1490.55 5702.5 1490.55M4230.5 1423.55 5702.5 1423.55M4230.5 1355.54 5702.5 1355.54M4230.5 1287.54 5702.5 1287.54M4230.5 1220.5 5702.5 1220.5" stroke="#D9D9D9" stroke-width="3.4375" stroke-linejoin="round" stroke-miterlimit="10" fill="none"/></g><g clip-path="url(#clip77)"><path d="M4271.14 1766.06 4307.14 1766.06 4307.14 1829 4271.14 1829ZM4434.15 1778.06 4471.15 1778.06 4471.15 1829 4434.15 1829ZM4598.15 1747.06 4634.15 1747.06 4634.15 1829 4598.15 1829ZM4761.16 1689.06 4798.16 1689.06 4798.16 1829 4761.16 1829ZM4925.16 1710.06 4961.16 1710.06 4961.16 1829 4925.16 1829ZM5088.17 1735.06 5125.17 1735.06 5125.17 1829 5088.17 1829ZM5252.17 1636.05 5288.17 1636.05 5288.17 1829 5252.17 1829ZM5415.18 1688.06 5452.18 1688.06 5452.18 1829 5415.18 1829ZM5579.18 1748.06 5615.18 1748.06 5615.18 1829 5579.18 1829Z" fill="#4472C4"/></g><g clip-path="url(#clip78)"><path d="M4317.14 1684.06 4354.14 1684.06 4354.14 1829 4317.14 1829ZM4481.15 1418.05 4517.15 1418.05 4517.15 1829 4481.15 1829ZM4644.15 1525.05 4681.15 1525.05 4681.15 1829 4644.15 1829ZM4808.16 1623.05 4844.16 1623.05 4844.16 1829 4808.16 1829ZM4971.16 1493.05 5008.16 1493.05 5008.16 1829 4971.16 1829ZM5135.17 1304.04 5171.17 1304.04 5171.17 1829 5135.17 1829ZM5298.17 1726.06 5335.18 1726.06 5335.18 1829 5298.17 1829ZM5462.18 1698.06 5498.18 1698.06 5498.18 1829 5462.18 1829ZM5625.18 1761.06 5662.19 1761.06 5662.19 1829 5625.18 1829Z" fill="#ED7D31"/></g><g clip-path="url(#clip79)"><path d="M4230.5 1828.5 5702.5 1828.5" stroke="#D9D9D9" stroke-width="3.4375" stroke-linejoin="round" stroke-miterlimit="10" fill="none" fill-rule="evenodd"/></g><g clip-path="url(#clip80)"><text fill="#595959" font-family="Calibri,Calibri_MSFontService,sans-serif" font-weight="400" font-size="41" transform="matrix(1 0 0 1 4171.54 1841)">0</text></g><g clip-path="url(#clip81)"><text fill="#595959" font-family="Calibri,Calibri_MSFontService,sans-serif" font-weight="400" font-size="41" transform="matrix(1 0 0 1 4140.24 1773)">0.5</text></g><g clip-path="url(#clip82)"><text fill="#595959" font-family="Calibri,Calibri_MSFontService,sans-serif" font-weight="400" font-size="41" transform="matrix(1 0 0 1 4171.54 1705)">1</text></g><g clip-path="url(#clip83)"><text fill="#595959" font-family="Calibri,Calibri_MSFontService,sans-serif" font-weight="400" font-size="41" transform="matrix(1 0 0 1 4140.24 1638)">1.5</text></g><g clip-path="url(#clip84)"><text fill="#595959" font-family="Calibri,Calibri_MSFontService,sans-serif" font-weight="400" font-size="41" transform="matrix(1 0 0 1 4171.54 1570)">2</text></g><g clip-path="url(#clip85)"><text fill="#595959" font-family="Calibri,Calibri_MSFontService,sans-serif" font-weight="400" font-size="41" transform="matrix(1 0 0 1 4140.24 1502)">2.5</text></g><g clip-path="url(#clip86)"><text fill="#595959" font-family="Calibri,Calibri_MSFontService,sans-serif" font-weight="400" font-size="41" transform="matrix(1 0 0 1 4171.54 1435)">3</text></g><g clip-path="url(#clip87)"><text fill="#595959" font-family="Calibri,Calibri_MSFontService,sans-serif" font-weight="400" font-size="41" transform="matrix(1 0 0 1 4140.24 1367)">3.5</text></g><g clip-path="url(#clip88)"><text fill="#595959" font-family="Calibri,Calibri_MSFontService,sans-serif" font-weight="400" font-size="41" transform="matrix(1 0 0 1 4171.54 1299)">4</text></g><g clip-path="url(#clip89)"><text fill="#595959" font-family="Calibri,Calibri_MSFontService,sans-serif" font-weight="400" font-size="41" transform="matrix(1 0 0 1 4140.24 1232)">4.5</text></g><g clip-path="url(#clip90)"><text fill="#595959" font-family="Calibri,Calibri_MSFontService,sans-serif" font-weight="400" font-size="41" transform="matrix(1 0 0 1 4302.01 1894)">1</text></g><g clip-path="url(#clip91)"><text fill="#595959" font-family="Calibri,Calibri_MSFontService,sans-serif" font-weight="400" font-size="41" transform="matrix(1 0 0 1 4465.52 1894)">2</text></g><g clip-path="url(#clip92)"><text fill="#595959" font-family="Calibri,Calibri_MSFontService,sans-serif" font-weight="400" font-size="41" transform="matrix(1 0 0 1 4629.02 1894)">3</text></g><g clip-path="url(#clip93)"><text fill="#595959" font-family="Calibri,Calibri_MSFontService,sans-serif" font-weight="400" font-size="41" transform="matrix(1 0 0 1 4792.52 1894)">4</text></g><g clip-path="url(#clip94)"><text fill="#595959" font-family="Calibri,Calibri_MSFontService,sans-serif" font-weight="400" font-size="41" transform="matrix(1 0 0 1 4956.02 1894)">5</text></g><g clip-path="url(#clip95)"><text fill="#595959" font-family="Calibri,Calibri_MSFontService,sans-serif" font-weight="400" font-size="41" transform="matrix(1 0 0 1 5119.53 1894)">6</text></g><g clip-path="url(#clip96)"><text fill="#595959" font-family="Calibri,Calibri_MSFontService,sans-serif" font-weight="400" font-size="41" transform="matrix(1 0 0 1 5283.03 1894)">7</text></g><g clip-path="url(#clip97)"><text fill="#595959" font-family="Calibri,Calibri_MSFontService,sans-serif" font-weight="400" font-size="41" transform="matrix(1 0 0 1 5446.53 1894)">8</text></g><g clip-path="url(#clip98)"><text fill="#595959" font-family="Calibri,Calibri_MSFontService,sans-serif" font-weight="400" font-size="41" transform="matrix(1 0 0 1 5610.04 1894)">9</text></g><g clip-path="url(#clip99)"><text fill="#595959" font-family="Calibri,Calibri_MSFontService,sans-serif" font-weight="400" font-size="64" transform="matrix(1 0 0 1 4694.29 1146)">Water vs Bar Area</text></g><g clip-path="url(#clip100)"><rect x="4614" y="1963" width="22" height="22" fill="#4472C4"/></g><g clip-path="url(#clip101)"><text fill="#595959" font-family="Calibri,Calibri_MSFontService,sans-serif" font-weight="400" font-size="41" transform="matrix(1 0 0 1 4646.08 1986)">Post-2019-Water</text></g><g clip-path="url(#clip102)"><rect x="4987" y="1963" width="23" height="22" fill="#ED7D31"/></g><g clip-path="url(#clip103)"><text fill="#595959" font-family="Calibri,Calibri_MSFontService,sans-serif" font-weight="400" font-size="41" transform="matrix(1 0 0 1 5019.53 1986)">Post-2019-Bar</text></g><rect x="4103.5" y="1050.5" width="1650" height="990" stroke="#D9D9D9" stroke-width="3.4375" stroke-linejoin="round" stroke-miterlimit="10" fill="none"/><rect x="3209" y="2054" width="1650" height="990" fill="#FFFFFF"/><g clip-path="url(#clip104)"><path d="M3336.5 2710.59 4808.5 2710.59M3336.5 2589.58 4808.5 2589.58M3336.5 2467.58 4808.5 2467.58M3336.5 2345.58 4808.5 2345.58M3336.5 2223.5 4808.5 2223.5" stroke="#D9D9D9" stroke-width="3.4375" stroke-linejoin="round" stroke-miterlimit="10" fill="none"/></g><g clip-path="url(#clip105)"><path d="M3377.11 2787.09 3414.11 2787.09 3414.11 2833 3377.11 2833ZM3540.12 2756.09 3577.12 2756.09 3577.12 2833 3540.12 2833ZM3704.12 2714.09 3741.12 2714.09 3741.12 2833 3704.12 2833ZM3867.13 2666.09 3904.13 2666.09 3904.13 2833 3867.13 2833ZM4031.13 2679.09 4068.13 2679.09 4068.13 2833 4031.13 2833ZM4194.14 2703.09 4231.14 2703.09 4231.14 2833 4194.14 2833ZM4358.14 2542.08 4395.14 2542.08 4395.14 2833 4358.14 2833ZM4521.15 2633.09 4558.15 2633.09 4558.15 2833 4521.15 2833ZM4685.15 2728.09 4722.16 2728.09 4722.16 2833 4685.15 2833Z" fill="#4472C4"/></g><g clip-path="url(#clip106)"><path d="M3424.11 2560.08 3460.11 2560.08 3460.11 2833 3424.11 2833ZM3587.12 2356.08 3624.12 2356.08 3624.12 2833 3587.12 2833ZM3751.12 2455.08 3787.12 2455.08 3787.12 2833 3751.12 2833ZM3914.13 2559.08 3951.13 2559.08 3951.13 2833 3914.13 2833ZM4078.13 2670.09 4114.14 2670.09 4114.14 2833 4078.13 2833ZM4241.14 2523.08 4278.14 2523.08 4278.14 2833 4241.14 2833ZM4405.14 2750.09 4441.15 2750.09 4441.15 2833 4405.14 2833ZM4568.15 2767.09 4605.15 2767.09 4605.15 2833 4568.15 2833ZM4732.16 2730.09 4768.16 2730.09 4768.16 2833 4732.16 2833Z" fill="#ED7D31"/></g><g clip-path="url(#clip107)"><path d="M3336.5 2832.5 4808.5 2832.5" stroke="#D9D9D9" stroke-width="3.4375" stroke-linejoin="round" stroke-miterlimit="10" fill="none" fill-rule="evenodd"/></g><g clip-path="url(#clip108)"><text fill="#595959" font-family="Calibri,Calibri_MSFontService,sans-serif" font-weight="400" font-size="41" transform="matrix(1 0 0 1 3277.79 2844)">0</text></g><g clip-path="url(#clip109)"><text fill="#595959" font-family="Calibri,Calibri_MSFontService,sans-serif" font-weight="400" font-size="41" transform="matrix(1 0 0 1 3246.49 2723)">0.5</text></g><g clip-path="url(#clip110)"><text fill="#595959" font-family="Calibri,Calibri_MSFontService,sans-serif" font-weight="400" font-size="41" transform="matrix(1 0 0 1 3277.79 2601)">1</text></g><g clip-path="url(#clip111)"><text fill="#595959" font-family="Calibri,Calibri_MSFontService,sans-serif" font-weight="400" font-size="41" transform="matrix(1 0 0 1 3246.49 2479)">1.5</text></g><g clip-path="url(#clip112)"><text fill="#595959" font-family="Calibri,Calibri_MSFontService,sans-serif" font-weight="400" font-size="41" transform="matrix(1 0 0 1 3277.79 2357)">2</text></g><g clip-path="url(#clip113)"><text fill="#595959" font-family="Calibri,Calibri_MSFontService,sans-serif" font-weight="400" font-size="41" transform="matrix(1 0 0 1 3246.49 2235)">2.5</text></g><g clip-path="url(#clip114)"><text fill="#595959" font-family="Calibri,Calibri_MSFontService,sans-serif" font-weight="400" font-size="41" transform="matrix(1 0 0 1 3408.26 2898)">1</text></g><g clip-path="url(#clip115)"><text fill="#595959" font-family="Calibri,Calibri_MSFontService,sans-serif" font-weight="400" font-size="41" transform="matrix(1 0 0 1 3571.77 2898)">2</text></g><g clip-path="url(#clip116)"><text fill="#595959" font-family="Calibri,Calibri_MSFontService,sans-serif" font-weight="400" font-size="41" transform="matrix(1 0 0 1 3735.27 2898)">3</text></g><g clip-path="url(#clip117)"><text fill="#595959" font-family="Calibri,Calibri_MSFontService,sans-serif" font-weight="400" font-size="41" transform="matrix(1 0 0 1 3898.77 2898)">4</text></g><g clip-path="url(#clip118)"><text fill="#595959" font-family="Calibri,Calibri_MSFontService,sans-serif" font-weight="400" font-size="41" transform="matrix(1 0 0 1 4062.27 2898)">5</text></g><g clip-path="url(#clip119)"><text fill="#595959" font-family="Calibri,Calibri_MSFontService,sans-serif" font-weight="400" font-size="41" transform="matrix(1 0 0 1 4225.78 2898)">6</text></g><g clip-path="url(#clip120)"><text fill="#595959" font-family="Calibri,Calibri_MSFontService,sans-serif" font-weight="400" font-size="41" transform="matrix(1 0 0 1 4389.28 2898)">7</text></g><g clip-path="url(#clip121)"><text fill="#595959" font-family="Calibri,Calibri_MSFontService,sans-serif" font-weight="400" font-size="41" transform="matrix(1 0 0 1 4552.78 2898)">8</text></g><g clip-path="url(#clip122)"><text fill="#595959" font-family="Calibri,Calibri_MSFontService,sans-serif" font-weight="400" font-size="41" transform="matrix(1 0 0 1 4716.29 2898)">9</text></g><g clip-path="url(#clip123)"><text fill="#595959" font-family="Calibri,Calibri_MSFontService,sans-serif" font-weight="400" font-size="64" transform="matrix(1 0 0 1 3800.55 2149)">Water vs Bar Area</text></g><g clip-path="url(#clip124)"><rect x="3720" y="2966" width="23" height="23" fill="#4472C4"/></g><g clip-path="url(#clip125)"><text fill="#595959" font-family="Calibri,Calibri_MSFontService,sans-serif" font-weight="400" font-size="41" transform="matrix(1 0 0 1 3752.33 2989)">Post-2020-Water</text></g><g clip-path="url(#clip126)"><rect x="4094" y="2966" width="22" height="23" fill="#ED7D31"/></g><g clip-path="url(#clip127)"><text fill="#595959" font-family="Calibri,Calibri_MSFontService,sans-serif" font-weight="400" font-size="41" transform="matrix(1 0 0 1 4125.78 2989)">Post-2020-Bar</text></g><rect x="3209.5" y="2054.5" width="1650" height="990" stroke="#D9D9D9" stroke-width="3.4375" stroke-linejoin="round" stroke-miterlimit="10" fill="none"/></g></svg>