<svg width="3395" height="2028" xmlns="http://www.w3.org/2000/svg" xmlns:xlink="http://www.w3.org/1999/xlink" xml:space="preserve" overflow="hidden"><defs><clipPath id="clip0"><rect x="2306" y="49" width="3395" height="2028"/></clipPath><clipPath id="clip1"><rect x="2306" y="49" width="1650" height="990"/></clipPath><clipPath id="clip2"><rect x="2524" y="219" width="1385" height="613"/></clipPath><clipPath id="clip3"><rect x="2524" y="219" width="1385" height="613"/></clipPath><clipPath id="clip4"><rect x="2306" y="49" width="1650" height="990"/></clipPath><clipPath id="clip5"><rect x="2306" y="49" width="1650" height="990"/></clipPath><clipPath id="clip6"><rect x="2306" y="49" width="1650" height="990"/></clipPath><clipPath id="clip7"><rect x="2306" y="49" width="1650" height="990"/></clipPath><clipPath id="clip8"><rect x="2306" y="49" width="1650" height="990"/></clipPath><clipPath id="clip9"><rect x="2306" y="49" width="1650" height="990"/></clipPath><clipPath id="clip10"><rect x="2306" y="49" width="1650" height="990"/></clipPath><clipPath id="clip11"><rect x="2306" y="49" width="1650" height="990"/></clipPath><clipPath id="clip12"><rect x="2306" y="49" width="1650" height="990"/></clipPath><clipPath id="clip13"><rect x="2306" y="49" width="1650" height="990"/></clipPath><clipPath id="clip14"><rect x="2306" y="49" width="1650" height="990"/></clipPath><clipPath id="clip15"><rect x="2306" y="49" width="1650" height="990"/></clipPath><clipPath id="clip16"><rect x="2306" y="49" width="1650" height="990"/></clipPath><clipPath id="clip17"><rect x="2306" y="49" width="1650" height="990"/></clipPath><clipPath id="clip18"><rect x="2306" y="49" width="1650" height="990"/></clipPath><clipPath id="clip19"><rect x="2306" y="49" width="1650" height="990"/></clipPath><clipPath id="clip20"><rect x="2306" y="49" width="1650" height="990"/></clipPath><clipPath id="clip21"><rect x="2306" y="49" width="1650" height="990"/></clipPath><clipPath id="clip22"><rect x="2306" y="49" width="1650" height="990"/></clipPath><clipPath id="clip23"><rect x="2306" y="49" width="1650" height="990"/></clipPath><clipPath id="clip24"><rect x="2306" y="49" width="1650" height="990"/></clipPath><clipPath id="clip25"><rect x="2306" y="49" width="1650" height="990"/></clipPath><clipPath id="clip26"><rect x="2306" y="49" width="1650" height="990"/></clipPath><clipPath id="clip27"><rect x="2316" y="1081" width="1650" height="990"/></clipPath><clipPath id="clip28"><rect x="2534" y="1251" width="1385" height="612"/></clipPath><clipPath id="clip29"><rect x="2534" y="1251" width="1385" height="612"/></clipPath><clipPath id="clip30"><rect x="2316" y="1081" width="1650" height="990"/></clipPath><clipPath id="clip31"><rect x="2316" y="1081" width="1650" height="990"/></clipPath><clipPath id="clip32"><rect x="2316" y="1081" width="1650" height="990"/></clipPath><clipPath id="clip33"><rect x="2316" y="1081" width="1650" height="990"/></clipPath><clipPath id="clip34"><rect x="2316" y="1081" width="1650" height="990"/></clipPath><clipPath id="clip35"><rect x="2316" y="1081" width="1650" height="990"/></clipPath><clipPath id="clip36"><rect x="2316" y="1081" width="1650" height="990"/></clipPath><clipPath id="clip37"><rect x="2316" y="1081" width="1650" height="990"/></clipPath><clipPath id="clip38"><rect x="2316" y="1081" width="1650" height="990"/></clipPath><clipPath id="clip39"><rect x="2316" y="1081" width="1650" height="990"/></clipPath><clipPath id="clip40"><rect x="2316" y="1081" width="1650" height="990"/></clipPath><clipPath id="clip41"><rect x="2316" y="1081" width="1650" height="990"/></clipPath><clipPath id="clip42"><rect x="2316" y="1081" width="1650" height="990"/></clipPath><clipPath id="clip43"><rect x="2316" y="1081" width="1650" height="990"/></clipPath><clipPath id="clip44"><rect x="2316" y="1081" width="1650" height="990"/></clipPath><clipPath id="clip45"><rect x="2316" y="1081" width="1650" height="990"/></clipPath><clipPath id="clip46"><rect x="2316" y="1081" width="1650" height="990"/></clipPath><clipPath id="clip47"><rect x="2316" y="1081" width="1650" height="990"/></clipPath><clipPath id="clip48"><rect x="2316" y="1081" width="1650" height="990"/></clipPath><clipPath id="clip49"><rect x="2316" y="1081" width="1650" height="990"/></clipPath><clipPath id="clip50"><rect x="2316" y="1081" width="1650" height="990"/></clipPath><clipPath id="clip51"><rect x="2316" y="1081" width="1650" height="990"/></clipPath><clipPath id="clip52"><rect x="2316" y="1081" width="1650" height="990"/></clipPath><clipPath id="clip53"><rect x="4049" y="49" width="1650" height="990"/></clipPath><clipPath id="clip54"><rect x="4266" y="219" width="1386" height="613"/></clipPath><clipPath id="clip55"><rect x="4266" y="219" width="1386" height="613"/></clipPath><clipPath id="clip56"><rect x="4049" y="49" width="1650" height="990"/></clipPath><clipPath id="clip57"><rect x="4049" y="49" width="1650" height="990"/></clipPath><clipPath id="clip58"><rect x="4049" y="49" width="1650" height="990"/></clipPath><clipPath id="clip59"><rect x="4049" y="49" width="1650" height="990"/></clipPath><clipPath id="clip60"><rect x="4049" y="49" width="1650" height="990"/></clipPath><clipPath id="clip61"><rect x="4049" y="49" width="1650" height="990"/></clipPath><clipPath id="clip62"><rect x="4049" y="49" width="1650" height="990"/></clipPath><clipPath id="clip63"><rect x="4049" y="49" width="1650" height="990"/></clipPath><clipPath id="clip64"><rect x="4049" y="49" width="1650" height="990"/></clipPath><clipPath id="clip65"><rect x="4049" y="49" width="1650" height="990"/></clipPath><clipPath id="clip66"><rect x="4049" y="49" width="1650" height="990"/></clipPath><clipPath id="clip67"><rect x="4049" y="49" width="1650" height="990"/></clipPath><clipPath id="clip68"><rect x="4049" y="49" width="1650" height="990"/></clipPath><clipPath id="clip69"><rect x="4049" y="49" width="1650" height="990"/></clipPath><clipPath id="clip70"><rect x="4049" y="49" width="1650" height="990"/></clipPath><clipPath id="clip71"><rect x="4049" y="49" width="1650" height="990"/></clipPath><clipPath id="clip72"><rect x="4049" y="49" width="1650" height="990"/></clipPath><clipPath id="clip73"><rect x="4049" y="49" width="1650" height="990"/></clipPath><clipPath id="clip74"><rect x="4049" y="49" width="1650" height="990"/></clipPath><clipPath id="clip75"><rect x="4049" y="49" width="1650" height="990"/></clipPath><clipPath id="clip76"><rect x="4049" y="49" width="1650" height="990"/></clipPath><clipPath id="clip77"><rect x="4049" y="49" width="1650" height="990"/></clipPath><clipPath id="clip78"><rect x="4049" y="49" width="1650" height="990"/></clipPath><clipPath id="clip79"><rect x="4021" y="1084" width="1650" height="990"/></clipPath><clipPath id="clip80"><rect x="4247" y="1254" width="1377" height="612"/></clipPath><clipPath id="clip81"><rect x="4247" y="1254" width="1377" height="612"/></clipPath><clipPath id="clip82"><rect x="4021" y="1084" width="1650" height="990"/></clipPath><clipPath id="clip83"><rect x="4021" y="1084" width="1650" height="990"/></clipPath><clipPath id="clip84"><rect x="4021" y="1084" width="1650" height="990"/></clipPath><clipPath id="clip85"><rect x="4021" y="1084" width="1650" height="990"/></clipPath><clipPath id="clip86"><rect x="4021" y="1084" width="1650" height="990"/></clipPath><clipPath id="clip87"><rect x="4021" y="1084" width="1650" height="990"/></clipPath><clipPath id="clip88"><rect x="4021" y="1084" width="1650" height="990"/></clipPath><clipPath id="clip89"><rect x="4021" y="1084" width="1650" height="990"/></clipPath><clipPath id="clip90"><rect x="4021" y="1084" width="1650" height="990"/></clipPath><clipPath id="clip91"><rect x="4021" y="1084" width="1650" height="990"/></clipPath><clipPath id="clip92"><rect x="4021" y="1084" width="1650" height="990"/></clipPath><clipPath id="clip93"><rect x="4021" y="1084" width="1650" height="990"/></clipPath><clipPath id="clip94"><rect x="4021" y="1084" width="1650" height="990"/></clipPath><clipPath id="clip95"><rect x="4021" y="1084" width="1650" height="990"/></clipPath><clipPath id="clip96"><rect x="4021" y="1084" width="1650" height="990"/></clipPath><clipPath id="clip97"><rect x="4021" y="1084" width="1650" height="990"/></clipPath><clipPath id="clip98"><rect x="4021" y="1084" width="1650" height="990"/></clipPath><clipPath id="clip99"><rect x="4021" y="1084" width="1650" height="990"/></clipPath><clipPath id="clip100"><rect x="4021" y="1084" width="1650" height="990"/></clipPath><clipPath id="clip101"><rect x="4021" y="1084" width="1650" height="990"/></clipPath><clipPath id="clip102"><rect x="4021" y="1084" width="1650" height="990"/></clipPath><clipPath id="clip103"><rect x="4021" y="1084" width="1650" height="990"/></clipPath><clipPath id="clip104"><rect x="4021" y="1084" width="1650" height="990"/></clipPath><clipPath id="clip105"><rect x="4021" y="1084" width="1650" height="990"/></clipPath></defs><g clip-path="url(#clip0)" transform="translate(-2306 -49)"><rect x="2307" y="49.9998" width="1650" height="990" fill="#FFFFFF"/><g clip-path="url(#clip1)"><path d="M2524.5 727.524 3906.5 727.524M2524.5 625.521 3906.5 625.521M2524.5 524.517 3906.5 524.517M2524.5 422.514 3906.5 422.514M2524.5 321.511 3906.5 321.511M2524.5 219.5 3906.5 219.5" stroke="#D9D9D9" stroke-width="3.4375" stroke-linejoin="round" stroke-miterlimit="10" fill="none"/></g><g clip-path="url(#clip2)"><path d="M2562.08 782.026 2596.09 782.026 2596.09 829 2562.08 829ZM2715.09 772.025 2750.09 772.025 2750.09 829 2715.09 829ZM2869.09 769.025 2903.1 769.025 2903.1 829 2869.09 829ZM3022.1 772.025 3057.1 772.025 3057.1 829 3022.1 829ZM3176.1 759.025 3210.11 759.025 3210.11 829 3176.1 829ZM3329.11 736.024 3364.11 736.024 3364.11 829 3329.11 829ZM3483.11 713.023 3517.12 713.023 3517.12 829 3483.11 829ZM3637.12 732.024 3671.12 732.024 3671.12 829 3637.12 829ZM3790.12 765.025 3825.13 765.025 3825.13 829 3790.12 829Z" fill="#4472C4"/></g><g clip-path="url(#clip3)"><path d="M2605.09 636.021 2640.09 636.021 2640.09 829 2605.09 829ZM2759.09 340.011 2793.09 340.011 2793.09 829 2759.09 829ZM2912.1 299.01 2947.1 299.01 2947.1 829 2912.1 829ZM3066.1 510.017 3100.1 510.017 3100.1 829 3066.1 829ZM3220.11 696.023 3254.11 696.023 3254.11 829 3220.11 829ZM3373.11 585.019 3408.11 585.019 3408.11 829 3373.11 829ZM3527.12 679.022 3561.12 679.022 3561.12 829 3527.12 829ZM3680.12 548.018 3715.12 548.018 3715.12 829 3680.12 829ZM3834.13 692.023 3868.13 692.023 3868.13 829 3834.13 829Z" fill="#ED7D31"/></g><g clip-path="url(#clip4)"><path d="M2524.5 828.5 3906.5 828.5" stroke="#D9D9D9" stroke-width="3.4375" stroke-linejoin="round" stroke-miterlimit="10" fill="none" fill-rule="evenodd"/></g><g clip-path="url(#clip5)"><text fill="#595959" font-family="Calibri,Calibri_MSFontService,sans-serif" font-weight="400" font-size="41" transform="matrix(1 0 0 1 2464.85 840)">0</text></g><g clip-path="url(#clip6)"><text fill="#595959" font-family="Calibri,Calibri_MSFontService,sans-serif" font-weight="400" font-size="41" transform="matrix(1 0 0 1 2433.54 739)">0.5</text></g><g clip-path="url(#clip7)"><text fill="#595959" font-family="Calibri,Calibri_MSFontService,sans-serif" font-weight="400" font-size="41" transform="matrix(1 0 0 1 2464.85 637)">1</text></g><g clip-path="url(#clip8)"><text fill="#595959" font-family="Calibri,Calibri_MSFontService,sans-serif" font-weight="400" font-size="41" transform="matrix(1 0 0 1 2433.54 536)">1.5</text></g><g clip-path="url(#clip9)"><text fill="#595959" font-family="Calibri,Calibri_MSFontService,sans-serif" font-weight="400" font-size="41" transform="matrix(1 0 0 1 2464.85 434)">2</text></g><g clip-path="url(#clip10)"><text fill="#595959" font-family="Calibri,Calibri_MSFontService,sans-serif" font-weight="400" font-size="41" transform="matrix(1 0 0 1 2433.54 333)">2.5</text></g><g clip-path="url(#clip11)"><text fill="#595959" font-family="Calibri,Calibri_MSFontService,sans-serif" font-weight="400" font-size="41" transform="matrix(1 0 0 1 2464.85 231)">3</text></g><g clip-path="url(#clip12)"><text fill="#595959" font-family="Calibri,Calibri_MSFontService,sans-serif" font-weight="400" font-size="41" transform="matrix(1 0 0 1 2590.35 894)">1</text></g><g clip-path="url(#clip13)"><text fill="#595959" font-family="Calibri,Calibri_MSFontService,sans-serif" font-weight="400" font-size="41" transform="matrix(1 0 0 1 2743.92 894)">2</text></g><g clip-path="url(#clip14)"><text fill="#595959" font-family="Calibri,Calibri_MSFontService,sans-serif" font-weight="400" font-size="41" transform="matrix(1 0 0 1 2897.49 894)">3</text></g><g clip-path="url(#clip15)"><text fill="#595959" font-family="Calibri,Calibri_MSFontService,sans-serif" font-weight="400" font-size="41" transform="matrix(1 0 0 1 3051.06 894)">4</text></g><g clip-path="url(#clip16)"><text fill="#595959" font-family="Calibri,Calibri_MSFontService,sans-serif" font-weight="400" font-size="41" transform="matrix(1 0 0 1 3204.63 894)">5</text></g><g clip-path="url(#clip17)"><text fill="#595959" font-family="Calibri,Calibri_MSFontService,sans-serif" font-weight="400" font-size="41" transform="matrix(1 0 0 1 3358.2 894)">6</text></g><g clip-path="url(#clip18)"><text fill="#595959" font-family="Calibri,Calibri_MSFontService,sans-serif" font-weight="400" font-size="41" transform="matrix(1 0 0 1 3511.77 894)">7</text></g><g clip-path="url(#clip19)"><text fill="#595959" font-family="Calibri,Calibri_MSFontService,sans-serif" font-weight="400" font-size="41" transform="matrix(1 0 0 1 3665.34 894)">8</text></g><g clip-path="url(#clip20)"><text fill="#595959" font-family="Calibri,Calibri_MSFontService,sans-serif" font-weight="400" font-size="41" transform="matrix(1 0 0 1 3818.91 894)">9</text></g><g clip-path="url(#clip21)"><text fill="#595959" font-family="Calibri,Calibri_MSFontService,sans-serif" font-weight="400" font-size="46" transform="matrix(6.12323e-17 -1 1 6.12323e-17 2407.85 656)">Area in sq km.</text></g><g clip-path="url(#clip22)"><text fill="#595959" font-family="Calibri,Calibri_MSFontService,sans-serif" font-weight="400" font-size="64" transform="matrix(1 0 0 1 2898.2 145)">Water vs Bar Area</text></g><g clip-path="url(#clip23)"><rect x="2836" y="962" width="22" height="22.9997" fill="#4472C4"/></g><g clip-path="url(#clip24)"><text fill="#595959" font-family="Calibri,Calibri_MSFontService,sans-serif" font-weight="400" font-size="41" transform="matrix(1 0 0 1 2867.88 985)">Pre-2017-Water</text></g><g clip-path="url(#clip25)"><rect x="3190" y="962" width="23" height="22.9997" fill="#ED7D31"/></g><g clip-path="url(#clip26)"><text fill="#595959" font-family="Calibri,Calibri_MSFontService,sans-serif" font-weight="400" font-size="41" transform="matrix(1 0 0 1 3222.32 985)">Pre-2017-Bar</text></g><rect x="2307.5" y="50.5" width="1650" height="990" stroke="#D9D9D9" stroke-width="3.4375" stroke-linejoin="round" stroke-miterlimit="10" fill="none"/><rect x="2317" y="1081" width="1650" height="990" fill="#FFFFFF"/><g clip-path="url(#clip27)"><path d="M2534.5 1758.56 3916.5 1758.56M2534.5 1656.55 3916.5 1656.55M2534.5 1555.55 3916.5 1555.55M2534.5 1453.55 3916.5 1453.55M2534.5 1352.54 3916.5 1352.54M2534.5 1251.5 3916.5 1251.5" stroke="#D9D9D9" stroke-width="3.4375" stroke-linejoin="round" stroke-miterlimit="10" fill="none"/></g><g clip-path="url(#clip28)"><path d="M2572.08 1782.06 2606.09 1782.06 2606.09 1860 2572.08 1860ZM2726.09 1758.06 2760.09 1758.06 2760.09 1860 2726.09 1860ZM2879.09 1696.06 2914.1 1696.06 2914.1 1860 2879.09 1860ZM3033.1 1519.05 3067.1 1519.05 3067.1 1860 3033.1 1860ZM3186.1 1664.05 3221.11 1664.05 3221.11 1860 3186.1 1860ZM3340.11 1690.06 3374.11 1690.06 3374.11 1860 3340.11 1860ZM3493.11 1585.05 3528.12 1585.05 3528.12 1860 3493.11 1860ZM3647.12 1675.05 3681.12 1675.05 3681.12 1860 3647.12 1860ZM3800.12 1703.06 3835.13 1703.06 3835.13 1860 3800.12 1860Z" fill="#4472C4"/></g><g clip-path="url(#clip29)"><path d="M2616.09 1537.05 2650.09 1537.05 2650.09 1860 2616.09 1860ZM2769.09 1346.04 2804.09 1346.04 2804.09 1860 2769.09 1860ZM2923.1 1522.05 2957.1 1522.05 2957.1 1860 2923.1 1860ZM3076.1 1827.06 3111.1 1827.06 3111.1 1860 3076.1 1860ZM3230.11 1765.06 3264.11 1765.06 3264.11 1860 3230.11 1860ZM3384.11 1590.05 3418.11 1590.05 3418.11 1860 3384.11 1860ZM3537.12 1545.05 3571.12 1545.05 3571.12 1860 3537.12 1860ZM3691.12 1853.06 3725.12 1853.06 3725.12 1860 3691.12 1860ZM3844.13 1855.06 3879.13 1855.06 3879.13 1860 3844.13 1860Z" fill="#ED7D31"/></g><g clip-path="url(#clip30)"><path d="M2534.5 1859.5 3916.5 1859.5" stroke="#D9D9D9" stroke-width="3.4375" stroke-linejoin="round" stroke-miterlimit="10" fill="none" fill-rule="evenodd"/></g><g clip-path="url(#clip31)"><text fill="#595959" font-family="Calibri,Calibri_MSFontService,sans-serif" font-weight="400" font-size="41" transform="matrix(1 0 0 1 2475.16 1871)">0</text></g><g clip-path="url(#clip32)"><text fill="#595959" font-family="Calibri,Calibri_MSFontService,sans-serif" font-weight="400" font-size="41" transform="matrix(1 0 0 1 2443.86 1770)">0.5</text></g><g clip-path="url(#clip33)"><text fill="#595959" font-family="Calibri,Calibri_MSFontService,sans-serif" font-weight="400" font-size="41" transform="matrix(1 0 0 1 2475.16 1669)">1</text></g><g clip-path="url(#clip34)"><text fill="#595959" font-family="Calibri,Calibri_MSFontService,sans-serif" font-weight="400" font-size="41" transform="matrix(1 0 0 1 2443.86 1567)">1.5</text></g><g clip-path="url(#clip35)"><text fill="#595959" font-family="Calibri,Calibri_MSFontService,sans-serif" font-weight="400" font-size="41" transform="matrix(1 0 0 1 2475.16 1466)">2</text></g><g clip-path="url(#clip36)"><text fill="#595959" font-family="Calibri,Calibri_MSFontService,sans-serif" font-weight="400" font-size="41" transform="matrix(1 0 0 1 2443.86 1364)">2.5</text></g><g clip-path="url(#clip37)"><text fill="#595959" font-family="Calibri,Calibri_MSFontService,sans-serif" font-weight="400" font-size="41" transform="matrix(1 0 0 1 2475.16 1263)">3</text></g><g clip-path="url(#clip38)"><text fill="#595959" font-family="Calibri,Calibri_MSFontService,sans-serif" font-weight="400" font-size="41" transform="matrix(1 0 0 1 2600.66 1925)">1</text></g><g clip-path="url(#clip39)"><text fill="#595959" font-family="Calibri,Calibri_MSFontService,sans-serif" font-weight="400" font-size="41" transform="matrix(1 0 0 1 2754.23 1925)">2</text></g><g clip-path="url(#clip40)"><text fill="#595959" font-family="Calibri,Calibri_MSFontService,sans-serif" font-weight="400" font-size="41" transform="matrix(1 0 0 1 2907.8 1925)">3</text></g><g clip-path="url(#clip41)"><text fill="#595959" font-family="Calibri,Calibri_MSFontService,sans-serif" font-weight="400" font-size="41" transform="matrix(1 0 0 1 3061.37 1925)">4</text></g><g clip-path="url(#clip42)"><text fill="#595959" font-family="Calibri,Calibri_MSFontService,sans-serif" font-weight="400" font-size="41" transform="matrix(1 0 0 1 3214.94 1925)">5</text></g><g clip-path="url(#clip43)"><text fill="#595959" font-family="Calibri,Calibri_MSFontService,sans-serif" font-weight="400" font-size="41" transform="matrix(1 0 0 1 3368.51 1925)">6</text></g><g clip-path="url(#clip44)"><text fill="#595959" font-family="Calibri,Calibri_MSFontService,sans-serif" font-weight="400" font-size="41" transform="matrix(1 0 0 1 3522.08 1925)">7</text></g><g clip-path="url(#clip45)"><text fill="#595959" font-family="Calibri,Calibri_MSFontService,sans-serif" font-weight="400" font-size="41" transform="matrix(1 0 0 1 3675.65 1925)">8</text></g><g clip-path="url(#clip46)"><text fill="#595959" font-family="Calibri,Calibri_MSFontService,sans-serif" font-weight="400" font-size="41" transform="matrix(1 0 0 1 3829.22 1925)">9</text></g><g clip-path="url(#clip47)"><text fill="#595959" font-family="Calibri,Calibri_MSFontService,sans-serif" font-weight="400" font-size="46" transform="matrix(6.12323e-17 -1 1 6.12323e-17 2418.17 1682)">Areain sq km.</text></g><g clip-path="url(#clip48)"><text fill="#595959" font-family="Calibri,Calibri_MSFontService,sans-serif" font-weight="400" font-size="64" transform="matrix(1 0 0 1 2908.51 1176)">Water vs Bar Area</text></g><g clip-path="url(#clip49)"><rect x="2846" y="1994" width="23" height="22" fill="#4472C4"/></g><g clip-path="url(#clip50)"><text fill="#595959" font-family="Calibri,Calibri_MSFontService,sans-serif" font-weight="400" font-size="41" transform="matrix(1 0 0 1 2878.2 2016)">Pre-2019-Water</text></g><g clip-path="url(#clip51)"><rect x="3200" y="1994" width="23" height="22" fill="#ED7D31"/></g><g clip-path="url(#clip52)"><text fill="#595959" font-family="Calibri,Calibri_MSFontService,sans-serif" font-weight="400" font-size="41" transform="matrix(1 0 0 1 3232.63 2016)">Pre-2019-Bar</text></g><rect x="2317.5" y="1081.5" width="1650" height="990" stroke="#D9D9D9" stroke-width="3.4375" stroke-linejoin="round" stroke-miterlimit="10" fill="none"/><rect x="4049" y="49.9998" width="1650" height="990" fill="#FFFFFF"/><g clip-path="url(#clip53)"><path d="M4266.5 727.524 5648.5 727.524M4266.5 625.521 5648.5 625.521M4266.5 524.517 5648.5 524.517M4266.5 422.514 5648.5 422.514M4266.5 321.511 5648.5 321.511M4266.5 219.5 5648.5 219.5" stroke="#D9D9D9" stroke-width="3.4375" stroke-linejoin="round" stroke-miterlimit="10" fill="none"/></g><g clip-path="url(#clip54)"><path d="M4304.14 791.026 4339.14 791.026 4339.14 829 4304.14 829ZM4458.15 800.026 4492.15 800.026 4492.15 829 4458.15 829ZM4612.15 779.026 4646.15 779.026 4646.15 829 4612.15 829ZM4765.16 766.025 4800.16 766.025 4800.16 829 4765.16 829ZM4919.16 767.025 4953.16 767.025 4953.16 829 4919.16 829ZM5072.17 742.024 5107.17 742.024 5107.17 829 5072.17 829ZM5226.17 745.024 5260.17 745.024 5260.17 829 5226.17 829ZM5379.18 749.025 5414.18 749.025 5414.18 829 5379.18 829ZM5533.18 745.024 5567.18 745.024 5567.18 829 5533.18 829Z" fill="#4472C4"/></g><g clip-path="url(#clip55)"><path d="M4348.14 642.021 4383.14 642.021 4383.14 829 4348.14 829ZM4502.15 280.009 4536.15 280.009 4536.15 829 4502.15 829ZM4655.15 411.013 4690.15 411.013 4690.15 829 4655.15 829ZM4809.16 481.016 4843.16 481.016 4843.16 829 4809.16 829ZM4962.16 741.024 4997.16 741.024 4997.16 829 4962.16 829ZM5116.17 643.021 5150.17 643.021 5150.17 829 5116.17 829ZM5270.17 510.017 5304.17 510.017 5304.17 829 5270.17 829ZM5423.18 466.015 5458.18 466.015 5458.18 829 5423.18 829ZM5577.18 588.019 5611.18 588.019 5611.18 829 5577.18 829Z" fill="#ED7D31"/></g><g clip-path="url(#clip56)"><path d="M4266.5 828.5 5648.5 828.5" stroke="#D9D9D9" stroke-width="3.4375" stroke-linejoin="round" stroke-miterlimit="10" fill="none" fill-rule="evenodd"/></g><g clip-path="url(#clip57)"><text fill="#595959" font-family="Calibri,Calibri_MSFontService,sans-serif" font-weight="400" font-size="41" transform="matrix(1 0 0 1 4207.66 840)">0</text></g><g clip-path="url(#clip58)"><text fill="#595959" font-family="Calibri,Calibri_MSFontService,sans-serif" font-weight="400" font-size="41" transform="matrix(1 0 0 1 4176.36 739)">0.5</text></g><g clip-path="url(#clip59)"><text fill="#595959" font-family="Calibri,Calibri_MSFontService,sans-serif" font-weight="400" font-size="41" transform="matrix(1 0 0 1 4207.66 637)">1</text></g><g clip-path="url(#clip60)"><text fill="#595959" font-family="Calibri,Calibri_MSFontService,sans-serif" font-weight="400" font-size="41" transform="matrix(1 0 0 1 4176.36 536)">1.5</text></g><g clip-path="url(#clip61)"><text fill="#595959" font-family="Calibri,Calibri_MSFontService,sans-serif" font-weight="400" font-size="41" transform="matrix(1 0 0 1 4207.66 434)">2</text></g><g clip-path="url(#clip62)"><text fill="#595959" font-family="Calibri,Calibri_MSFontService,sans-serif" font-weight="400" font-size="41" transform="matrix(1 0 0 1 4176.36 333)">2.5</text></g><g clip-path="url(#clip63)"><text fill="#595959" font-family="Calibri,Calibri_MSFontService,sans-serif" font-weight="400" font-size="41" transform="matrix(1 0 0 1 4207.66 231)">3</text></g><g clip-path="url(#clip64)"><text fill="#595959" font-family="Calibri,Calibri_MSFontService,sans-serif" font-weight="400" font-size="41" transform="matrix(1 0 0 1 4333.16 894)">1</text></g><g clip-path="url(#clip65)"><text fill="#595959" font-family="Calibri,Calibri_MSFontService,sans-serif" font-weight="400" font-size="41" transform="matrix(1 0 0 1 4486.73 894)">2</text></g><g clip-path="url(#clip66)"><text fill="#595959" font-family="Calibri,Calibri_MSFontService,sans-serif" font-weight="400" font-size="41" transform="matrix(1 0 0 1 4640.3 894)">3</text></g><g clip-path="url(#clip67)"><text fill="#595959" font-family="Calibri,Calibri_MSFontService,sans-serif" font-weight="400" font-size="41" transform="matrix(1 0 0 1 4793.87 894)">4</text></g><g clip-path="url(#clip68)"><text fill="#595959" font-family="Calibri,Calibri_MSFontService,sans-serif" font-weight="400" font-size="41" transform="matrix(1 0 0 1 4947.44 894)">5</text></g><g clip-path="url(#clip69)"><text fill="#595959" font-family="Calibri,Calibri_MSFontService,sans-serif" font-weight="400" font-size="41" transform="matrix(1 0 0 1 5101.01 894)">6</text></g><g clip-path="url(#clip70)"><text fill="#595959" font-family="Calibri,Calibri_MSFontService,sans-serif" font-weight="400" font-size="41" transform="matrix(1 0 0 1 5254.58 894)">7</text></g><g clip-path="url(#clip71)"><text fill="#595959" font-family="Calibri,Calibri_MSFontService,sans-serif" font-weight="400" font-size="41" transform="matrix(1 0 0 1 5408.15 894)">8</text></g><g clip-path="url(#clip72)"><text fill="#595959" font-family="Calibri,Calibri_MSFontService,sans-serif" font-weight="400" font-size="41" transform="matrix(1 0 0 1 5561.72 894)">9</text></g><g clip-path="url(#clip73)"><text fill="#595959" font-family="Calibri,Calibri_MSFontService,sans-serif" font-weight="400" font-size="46" transform="matrix(6.12323e-17 -1 1 6.12323e-17 4150.67 656)">Area in sq km.</text></g><g clip-path="url(#clip74)"><text fill="#595959" font-family="Calibri,Calibri_MSFontService,sans-serif" font-weight="400" font-size="64" transform="matrix(1 0 0 1 4641.01 145)">Water vs Bar Area</text></g><g clip-path="url(#clip75)"><rect x="4578" y="962" width="23" height="22.9997" fill="#4472C4"/></g><g clip-path="url(#clip76)"><text fill="#595959" font-family="Calibri,Calibri_MSFontService,sans-serif" font-weight="400" font-size="41" transform="matrix(1 0 0 1 4610.7 985)">Pre-2018-Water</text></g><g clip-path="url(#clip77)"><rect x="4933" y="962" width="22.9995" height="22.9997" fill="#ED7D31"/></g><g clip-path="url(#clip78)"><text fill="#595959" font-family="Calibri,Calibri_MSFontService,sans-serif" font-weight="400" font-size="41" transform="matrix(1 0 0 1 4965.13 985)">Pre-2018-Bar</text></g><rect x="4049.5" y="50.5" width="1650" height="990" stroke="#D9D9D9" stroke-width="3.4375" stroke-linejoin="round" stroke-miterlimit="10" fill="none"/><rect x="4022" y="1085" width="1650" height="990" fill="#FFFFFF"/><g clip-path="url(#clip79)"><path d="M4247.5 1776.56 5621.5 1776.56M4247.5 1689.56 5621.5 1689.56M4247.5 1602.55 5621.5 1602.55M4247.5 1515.55 5621.5 1515.55M4247.5 1428.55 5621.5 1428.55M4247.5 1341.54 5621.5 1341.54M4247.5 1254.5 5621.5 1254.5" stroke="#D9D9D9" stroke-width="3.4375" stroke-linejoin="round" stroke-miterlimit="10" fill="none"/></g><g clip-path="url(#clip80)"><path d="M4284.14 1808.06 4319.14 1808.06 4319.14 1863 4284.14 1863ZM4437.15 1788.06 4471.15 1788.06 4471.15 1863 4437.15 1863ZM4590.15 1741.06 4624.15 1741.06 4624.15 1863 4590.15 1863ZM4743.16 1687.06 4777.16 1687.06 4777.16 1863 4743.16 1863ZM4895.16 1726.06 4930.16 1726.06 4930.16 1863 4895.16 1863ZM5048.17 1760.06 5082.17 1760.06 5082.17 1863 5048.17 1863ZM5201.17 1567.05 5235.17 1567.05 5235.17 1863 5201.17 1863ZM5353.18 1680.06 5388.18 1680.06 5388.18 1863 5353.18 1863ZM5506.18 1747.06 5540.18 1747.06 5540.18 1863 5506.18 1863Z" fill="#4472C4"/></g><g clip-path="url(#clip81)"><path d="M4328.14 1623.05 4362.14 1623.05 4362.14 1863 4328.14 1863ZM4481.15 1627.05 4515.15 1627.05 4515.15 1863 4481.15 1863ZM4633.15 1352.04 4668.15 1352.04 4668.15 1863 4633.15 1863ZM4786.16 1541.05 4820.16 1541.05 4820.16 1863 4786.16 1863ZM4939.16 1442.05 4973.16 1442.05 4973.16 1863 4939.16 1863ZM5091.17 1610.05 5126.17 1610.05 5126.17 1863 5091.17 1863ZM5244.17 1720.06 5278.17 1720.06 5278.17 1863 5244.17 1863ZM5397.18 1811.06 5431.18 1811.06 5431.18 1863 5397.18 1863ZM5550.18 1836.06 5584.18 1836.06 5584.18 1863 5550.18 1863Z" fill="#ED7D31"/></g><g clip-path="url(#clip82)"><path d="M4247.5 1863.5 5621.5 1863.5" stroke="#D9D9D9" stroke-width="3.4375" stroke-linejoin="round" stroke-miterlimit="10" fill="none" fill-rule="evenodd"/></g><g clip-path="url(#clip83)"><text fill="#595959" font-family="Calibri,Calibri_MSFontService,sans-serif" font-weight="400" font-size="41" transform="matrix(1 0 0 1 4187.95 1875)">0</text></g><g clip-path="url(#clip84)"><text fill="#595959" font-family="Calibri,Calibri_MSFontService,sans-serif" font-weight="400" font-size="41" transform="matrix(1 0 0 1 4156.65 1788)">0.5</text></g><g clip-path="url(#clip85)"><text fill="#595959" font-family="Calibri,Calibri_MSFontService,sans-serif" font-weight="400" font-size="41" transform="matrix(1 0 0 1 4187.95 1701)">1</text></g><g clip-path="url(#clip86)"><text fill="#595959" font-family="Calibri,Calibri_MSFontService,sans-serif" font-weight="400" font-size="41" transform="matrix(1 0 0 1 4156.65 1614)">1.5</text></g><g clip-path="url(#clip87)"><text fill="#595959" font-family="Calibri,Calibri_MSFontService,sans-serif" font-weight="400" font-size="41" transform="matrix(1 0 0 1 4187.95 1527)">2</text></g><g clip-path="url(#clip88)"><text fill="#595959" font-family="Calibri,Calibri_MSFontService,sans-serif" font-weight="400" font-size="41" transform="matrix(1 0 0 1 4156.65 1440)">2.5</text></g><g clip-path="url(#clip89)"><text fill="#595959" font-family="Calibri,Calibri_MSFontService,sans-serif" font-weight="400" font-size="41" transform="matrix(1 0 0 1 4187.95 1353)">3</text></g><g clip-path="url(#clip90)"><text fill="#595959" font-family="Calibri,Calibri_MSFontService,sans-serif" font-weight="400" font-size="41" transform="matrix(1 0 0 1 4156.65 1266)">3.5</text></g><g clip-path="url(#clip91)"><text fill="#595959" font-family="Calibri,Calibri_MSFontService,sans-serif" font-weight="400" font-size="41" transform="matrix(1 0 0 1 4313.02 1929)">1</text></g><g clip-path="url(#clip92)"><text fill="#595959" font-family="Calibri,Calibri_MSFontService,sans-serif" font-weight="400" font-size="41" transform="matrix(1 0 0 1 4465.73 1929)">2</text></g><g clip-path="url(#clip93)"><text fill="#595959" font-family="Calibri,Calibri_MSFontService,sans-serif" font-weight="400" font-size="41" transform="matrix(1 0 0 1 4618.43 1929)">3</text></g><g clip-path="url(#clip94)"><text fill="#595959" font-family="Calibri,Calibri_MSFontService,sans-serif" font-weight="400" font-size="41" transform="matrix(1 0 0 1 4771.13 1929)">4</text></g><g clip-path="url(#clip95)"><text fill="#595959" font-family="Calibri,Calibri_MSFontService,sans-serif" font-weight="400" font-size="41" transform="matrix(1 0 0 1 4923.84 1929)">5</text></g><g clip-path="url(#clip96)"><text fill="#595959" font-family="Calibri,Calibri_MSFontService,sans-serif" font-weight="400" font-size="41" transform="matrix(1 0 0 1 5076.54 1929)">6</text></g><g clip-path="url(#clip97)"><text fill="#595959" font-family="Calibri,Calibri_MSFontService,sans-serif" font-weight="400" font-size="41" transform="matrix(1 0 0 1 5229.25 1929)">7</text></g><g clip-path="url(#clip98)"><text fill="#595959" font-family="Calibri,Calibri_MSFontService,sans-serif" font-weight="400" font-size="41" transform="matrix(1 0 0 1 5381.95 1929)">8</text></g><g clip-path="url(#clip99)"><text fill="#595959" font-family="Calibri,Calibri_MSFontService,sans-serif" font-weight="400" font-size="41" transform="matrix(1 0 0 1 5534.66 1929)">9</text></g><g clip-path="url(#clip100)"><text fill="#595959" font-family="Calibri,Calibri_MSFontService,sans-serif" font-weight="400" font-size="46" transform="matrix(6.12323e-17 -1 1 6.12323e-17 4123.17 1691)">Area in sq km.</text></g><g clip-path="url(#clip101)"><text fill="#595959" font-family="Calibri,Calibri_MSFontService,sans-serif" font-weight="400" font-size="64" transform="matrix(1 0 0 1 4613.51 1180)">Water vs Bar Area</text></g><g clip-path="url(#clip102)"><rect x="4551" y="1997" width="23" height="23" fill="#4472C4"/></g><g clip-path="url(#clip103)"><text fill="#595959" font-family="Calibri,Calibri_MSFontService,sans-serif" font-weight="400" font-size="41" transform="matrix(1 0 0 1 4583.2 2020)">Pre-2020-Water</text></g><g clip-path="url(#clip104)"><rect x="4905" y="1997" width="23" height="23" fill="#ED7D31"/></g><g clip-path="url(#clip105)"><text fill="#595959" font-family="Calibri,Calibri_MSFontService,sans-serif" font-weight="400" font-size="41" transform="matrix(1 0 0 1 4937.63 2020)">Pre-2020-Bar</text></g><rect x="4022.5" y="1085.5" width="1650" height="990" stroke="#D9D9D9" stroke-width="3.4375" stroke-linejoin="round" stroke-miterlimit="10" fill="none"/></g></svg>